<?xml version="1.0" encoding="utf-8"?>
<!-- Generator: Adobe Illustrator 16.0.3, SVG Export Plug-In . SVG Version: 6.00 Build 0)  -->
<svg version="1.1" id="Herzen_university_logo" xmlns="http://www.w3.org/2000/svg" xmlns:xlink="http://www.w3.org/1999/xlink"
	 x="0px" y="0px" width="419.98px" height="436.36px" viewBox="0 -0.001 419.98 436.36"
	 enable-background="new 0 -0.001 419.98 436.36" xml:space="preserve">
<g>
	<path d="M172.652,224.43c0,0,1.255,12.092,1.255,18.561c0,0,6.308-3.39,3.616-20.728c0,0-0.148-0.138-1.095-1.096
		C176.428,221.167,175.105,224.088,172.652,224.43z M176.575,195.935c0,0-0.821,5.292-3.137,7.62c0,0,1.848,3.457,4.938,0.365
		c0,0,2.087-1.997,2.566-7.129C180.945,196.791,177.763,198.216,176.575,195.935z M171.043,223.026
		c6.08,0.491,6.479-16.733,6.479-16.733c-2.635,1.527-6.068,0-6.068,0C171.454,211.906,171.043,223.026,171.043,223.026z
		 M170.507,311.819c0.616,0.514,1.301,0.787,2.088,0.937c0.81,0.159,1.175-0.399,1.356-1.152c0.319-1.209-0.239-2.464-1.243-3.193
		c-1.118-0.811-2.704-0.296-2.817,1.13c-0.058,0.764,0.035,1.368,0.398,1.996c0.058,0.125,0.125,0.217,0.194,0.308L170.507,311.819z
		 M169.344,190.996c-3.891,11.875,0,12.924,0,12.924c4.472,0.947,5.133-9.126,5.133-9.126
		C170.359,197.167,169.344,190.996,169.344,190.996z M167.61,246.787c0,0,2.019,11.315,2.019,14.077c0,0,4.563-6.469,2.477-21.104
		c0,0-0.65-10.46-0.65-14.646c0,0-0.662,2.145-2.029,3.523c0,0,0.798,10.449,0.398,13.586c0,0-0.764-8.681-1.711-12.16
		c0,0-1.334,1.188-1.917,1.519C166.196,231.582,166.457,241.654,167.61,246.787z M166.515,203.92c0,5.704-1.096,12.548-1.096,12.548
		c0-4.654,0-10.654,0-10.654c-0.82,0.821-2.155,1.243-2.155,1.243c1.05,7.837-1.198,23.578-1.198,23.578
		c9.251-1.243,8.236-23.578,8.236-23.578C168.112,207.057,166.515,203.92,166.515,203.92z M267.09,285.754
		c-0.033-0.08-0.137-0.08-0.272-0.057c-0.343,0.067-0.479,0.559-0.525,0.854c-0.125,0.787,0.525,1.95,1.461,1.848
		C269.212,288.241,268.448,285.035,267.09,285.754z M138.648,213.901c-1.129,3.331-4.38,5.271-4.38,5.271
		c1.026,9.845,0,27.901,0,27.901c11.601,1.05,10.369-31.838,10.369-31.838c-1.198,2.055-3.901,1.608-3.901,1.608
		c0,8.179-1.62,13.221-1.62,13.221C139.971,223.597,138.648,213.901,138.648,213.901z M210.101,324.595
		c0.16-0.364,0.08-0.604-0.012-0.979c-0.228-0.947-0.98-1.644-2.008-1.313c-0.854,0.274-1.917,1.335-1.607,2.316
		c0.217,0.66,1.038,0.958,1.631,0.924c0.342-0.012,0.696-0.068,1.026-0.148v0.013c-0.022,0-0.046,0-0.057,0.011
		C209.496,325.61,209.964,324.926,210.101,324.595z M185.645,300.8c-0.206-0.057-0.65-0.012-0.891,0.058
		c-0.364,0.092-0.649,0.376-0.912,0.661c-0.582,0.627-1.016,1.335-1.449,2.076c-0.184,0.319-0.765,1.175-0.753,1.631
		c0.171-0.114,0.662-0.741,0.787-0.878c0.422-0.411,0.89-0.707,1.472-0.799c0.639-0.091,1.894-0.034,2.327-0.604
		C186.649,302.408,186.364,300.982,185.645,300.8z M154.903,293.18c5.989-9.319-2.099-32.314-2.099-32.314
		c-2.943-10.654-3.708-16.449-3.708-16.449c-1.083,1.46-3.422,1.141-3.422,1.141c0,3.514,1.904,9.604,1.904,9.604
		c2.477,7.026,2.761,10.677,2.761,10.677c-1.653-3.49-4.187-9.616-4.187-9.616c-2.281-4.54-2.567-11.235-2.567-11.235
		c-1.049,0-1.242-0.854-1.242-0.854c-0.674,2.566-2.088,3.616-2.088,3.616c0,9.593,7.13,21,7.13,21
		C151.948,277.21,154.903,293.18,154.903,293.18z M262.426,304.279c0.057-0.706-0.08-1.276-0.675-1.699
		c-0.296-0.205-0.661-0.581-1.025-0.594c-0.285,0-0.775,0.114-1.062,0.184c-1.197,0.297-1.677,1.711-1.723,2.816
		c-0.022,0.49,0.057,1.051,0.422,1.393c0.354,0.331,0.867,0.604,0.867,1.175c-0.012,0.411-0.263,0.753-0.251,1.209
		c0.012,0.365,0,1.381,0.514,1.519c0.011,0,0.011,0,0.011,0c0.059,0.012,0.114,0.012,0.184,0c0-0.013,0-0.013,0-0.013
		c0.171,0.013,0.354,0.104,0.536,0.092c0.309-0.012,0.524-0.159,0.753-0.354c0.49-0.434,0.81-0.959,0.559-1.643
		c-0.103-0.274-0.433-0.536-0.49-0.787c-0.08-0.285,0.172-0.73,0.319-0.971C261.81,305.842,262.346,305.203,262.426,304.279z
		 M266.463,304.37c0.719-0.502-0.377-1.711-0.854-0.946c-0.012,0-0.012,0,0,0.011c-0.183,0.023-0.263,0.468-0.172,0.662
		C265.597,304.438,266.179,304.564,266.463,304.37z M147.386,243.845c0,0,2.189-1.335,3.239-9.502c0,0,1.939-17.978,2.18-21.104
		c0,0-2.567,1.141-3.708,0c0,0-0.376,12.067-1.518,16.824c0,0,0.686-15.547,0-19.3c0,0-0.205,1.666-1.996,3.456
		c0,0,0.194,20.305-1.997,28.484C143.586,242.704,145.572,244.894,147.386,243.845z M292.643,209.429
		c2.327,0.776,0.377-5.464,0.377-5.464c-2.327-3.091-4.85-14.829-4.85-14.829c-1.049,0-1.757-1.323-1.757-1.323
		c-0.854,2.464-3.992,1.711-3.992,1.711C286.745,209.783,292.643,209.429,292.643,209.429z M255.284,194.749
		c0.229,4.517,3.138,8.225,3.138,8.225c2.418,3.468,5.372,0.582,5.372,0.582c-3-4.356-3.707-11.806-3.707-11.806
		c-0.958,0-2.384-0.422-2.384-0.422C257.417,192.935,255.284,194.749,255.284,194.749z M230.496,321.241
		c0.309-0.251,0.524-0.707,0.422-1.106c-0.158-0.673-1.038-0.97-1.563-0.536c-0.251,0.217-0.354,0.582-0.57,0.775
		c-0.217,0.183-0.774,0.16-1.05,0.183c-0.707,0.068-1.403-0.192-2.121-0.147c-0.662,0.046-1.495,0.193-1.825,0.833
		c-0.263,0.514-0.217,1.071-0.113,1.619c0.079,0.456,0.171,0.901,0.434,1.301c0.068,0.104,0.217,0.263,0.285,0.364l0.192-0.091
		c0.377,0.319,1.302,0.514,1.7,0.502c0.729-0.034,1.551-0.639,1.962-1.197c0.456-0.615,0.422-1.712,1.142-2.11
		C229.755,321.436,230.144,321.516,230.496,321.241z M255.023,301.541c0.536,0.297,1.095,0.206,1.723,0.206
		c0.844-0.013,1.598-0.708,1.849-1.506c0.262-0.833-0.126-2.168-1.072-2.407c-0.561-0.138-0.879,0.114-1.152,0.594
		c-0.229,0.422-0.103,0.912-0.272,1.277c-0.274-0.138-0.389-0.297-0.72-0.218c-0.377,0.08-0.707,0.399-0.845,0.754
		c-0.171,0.388-0.159,0.911,0.126,1.255C254.793,301.645,255.09,301.77,255.023,301.541z M196.105,315.024
		c-0.274-0.158-0.571-0.067-0.799-0.284c-0.456-0.435-0.389-1.438-1.255-1.357c-0.707,0.068-1.038,0.844-1.552,1.209
		c-0.342,0.24-0.604,0.525-0.935,0.765c-0.354,0.264-0.856,0.469-1.244,0.686c-0.673,0.376-1.506,0.296-2.258,0.456
		c-0.206,0.046-0.354,0.147-0.56,0.205c-0.41,0.113-0.741,0.012-1.061,0.398c-0.434,0.515-0.821,1.026-0.833,1.745
		c-0.023,1.141,0.376,2.635,1.654,2.841c0.183,0.034,0.444,0.034,0.639,0.022c0.388-0.034,0.422-0.205,0.708-0.399
		c0.205-0.137,0.456-0.034,0.673-0.217c0.184-0.148,0.399-0.456,0.536-0.639c0.376-0.502,0.65-1.427,1.357-1.552
		c1.677-0.273,0.502,2.064,1.402,2.465l-0.022,0.057c1.118,0.502,2.189-0.171,2.259-1.403c0.011-0.354-0.125-0.936,0.147-1.196
		c0.251-0.264,0.776-0.148,1.084-0.31c0.879-0.444,1.232-1.288,0.925-2.234C196.823,315.8,196.55,315.298,196.105,315.024z
		 M264.388,300.093c-0.16,0.308-0.479,1.095-0.093,1.346c0.251,1.063,1.666,1.209,2.419,0.604c0.765-0.615,0.695-2.146-0.263-2.589
		C265.78,299.135,264.718,299.42,264.388,300.093z M265.141,305.169c-0.344,0.012-0.742,0.376-0.926,0.639
		c-0.443,0.616-0.455,1.084-0.045,1.699c0.524,0.765,1.836,0.685,2.566,0.183c0.753-0.513,0.65-1.597,0.012-2.109
		c-0.183-0.147-0.411-0.309-0.64-0.364c-0.296-0.068-0.593,0.022-0.878-0.08l-0.022,0.046
		C265.175,305.169,265.152,305.169,265.141,305.169z M293.02,225.775c-0.787-2.681-0.776-13.025-0.776-13.025
		c-3.08-0.229-4.448-4.46-4.448-4.46s0.469,7.038,0,10.882c0,0-0.958-6.125-0.958-8.213c0,0-1.894,1.038-2.853,0.468
		c0,0,1.347,20.202,4.666,20.658C292.585,232.62,293.02,225.775,293.02,225.775z M241.186,317.705
		c0.593,0.867,1.517,1.187,2.476,0.98c0.205-0.411,1.026-0.444,0.787-1.164c-0.104-0.272-0.457-0.604-0.696-0.74
		c-0.147-0.092-0.238,0-0.388-0.184c-0.147-0.159-0.114-0.398-0.171-0.593c-0.285-1.038-1.849-1.757-2.43-0.514
		C240.433,316.199,240.775,317.112,241.186,317.705z M153.373,240.708c-0.98,1.699-2.566,2.565-2.566,2.565
		c0.514,6.833,4.38,18.16,4.38,18.16c1.984,6.217,5.064,20.51,5.611,23.076c0.058,0.263,0.092,0.399,0.092,0.399
		c4.848-9.981-3.456-45.149-3.456-45.149c-0.686,0.388-2.441,0.947-2.441,0.947c0.479,2.188,1.334,10.745,1.334,10.745
		C155.084,247.357,153.373,240.708,153.373,240.708z M162.066,233.099c0,3.525-3.878,5.909-3.878,5.909
		c3.571,8.92,6.297,31.313,6.673,34.495c0.023,0.251,0.045,0.376,0.045,0.376c4.369-9.331,1.289-23.853,1.289-23.853
		c-1.54-6.845-1.7-17.59-1.7-17.59C163.31,233.122,162.066,233.099,162.066,233.099z M156.704,238.335
		c6.65-5.327,5.226-30.514,5.226-30.514c-2.453,1.414-4.849-0.765-4.849-0.765c0.57,7.415,0,20.385,0,20.385
		c0-4.607-1.197-18.354-1.197-18.354c-0.719,2.612-1.837,3.194-1.837,3.194c0.754,6.273-1.242,26.054-1.242,26.054
		C154.331,239.852,156.704,238.335,156.704,238.335z M235.378,319.998c-0.74-0.924-2.154-0.901-2.601,0.285
		c-0.285,0.74-0.148,1.493,0.319,2.155c0.41,0.57,0.879,1.049,1.563,1.255c0.229,0.058,0.57,0.034,0.821,0.068l0.012-0.023
		c0.65,0.264,1.255-0.033,1.745-0.513c0.434-0.434,0.821-1.54-0.113-1.632c-0.411-0.045-0.662,0.171-1.004-0.183
		C235.755,321.024,235.722,320.432,235.378,319.998z M240.262,319.348c-0.549,0.331-0.787,0.879-0.821,1.494
		c-0.012,0.24,0.147,1.313,0.41,1.563l-0.022,0.022c0.342,0.319,1.038,0.365,1.403,0.273c0.958-0.218,1.779-1.187,1.448-2.225
		c-0.159-0.491-0.604-0.959-1.026-1.21C241.127,318.972,240.797,319.017,240.262,319.348z M268.107,304.37
		c0.604,0.411,1.916,0.536,2.384-0.171c0.422-0.64,0.046-1.357-0.548-1.724c-0.422-0.251-0.878-0.318-1.323-0.125
		c-0.045-0.126-0.741,0.365-0.844,0.57C267.559,303.4,267.672,304.074,268.107,304.37z M239.441,316.553
		c-0.137-0.854-1.188-1.87-2.146-1.619c-0.318,0.079-0.729,0.342-1.05,0.502c-0.639,0.309-0.867,0.878-0.946,1.552
		c-0.079,0.685-0.092,1.563,0.218,2.189c0.363,0.741,1.38,1.448,2.258,1.448c0,0,0,0,0.012,0c0.319,0.114,0.616,0.012,0.661-0.422
		c0.023-0.251-0.159-0.479-0.147-0.707c0.012-0.251,0.184-0.469,0.33-0.65C239.11,318.229,239.577,317.386,239.441,316.553z
		 M252.821,295.073c-0.296,0.719-0.113,1.95,0.594,2.385c0.263,0.171,0.832,0.308,1.142,0.251c0.513-0.092,0.547-0.628,0.582-1.063
		c0.067-0.707,0.033-1.472-0.515-2.008c-0.456-0.444-0.854-0.397-1.151-0.125C253.22,294.48,252.901,294.856,252.821,295.073z
		 M253.243,308.249c0.285,0.844,1.505,1.117,2.281,0.798c0.729-0.296,1.105-1.141,0.49-1.791c-0.184-0.193-0.422-0.193-0.673-0.273
		c-0.298-0.091-0.674,0.022-0.925-0.113v-0.034c-0.309,0.034-0.866,0.16-1.038,0.354
		C253.173,307.404,253.152,307.986,253.243,308.249z M266.497,204.159c3.57,2.852,5.042-0.239,5.042-0.239
		c-2.134-2.989-4.038-12.114-4.038-12.114c-2.054,0.798-4.688-1.312-4.688-1.312c0,0.833-1.644,1.643-1.644,1.643
		C262.266,201.729,266.497,204.159,266.497,204.159z M252.308,316.416c0.318,0.331,0.354,0.444,0.81,0.411
		c0.411-0.034,0.604-0.148,0.912-0.445c0.616-0.57,1.313-1.38,0.913-2.247c-0.456-0.97-1.243-0.89-2.133-0.502
		c-0.502,0.229-0.686,0.673-0.776,1.187c-0.068,0.41-0.137,1.427,0.274,1.678C252.319,316.462,252.308,316.439,252.308,316.416z
		 M204.136,173.828c0-1.118-0.913-2.042-2.042-2.042c-1.13,0-2.042,0.924-2.042,2.042c0,1.129,0.912,2.053,2.042,2.053
		C203.223,175.881,204.136,174.957,204.136,173.828z M127.422,253.347c0,0,4.323,18.65,23.202,45.628c0,0,4.849-7.643-7.039-33.138
		c0,0-4.563-10.87-5.224-16.665c0,0-2.282,1.802-4.095,0c0,0,5.691,19.438,7.597,24.879c-0.331-0.536-5.612-9.365-9.023-23.556
		C132.842,250.495,130.035,255.959,127.422,253.347z M250.027,316.051c0.308-0.924-0.297-1.996-1.063-2.555
		c-0.685-0.502-1.813,0.514-2.029,1.187c-0.16,0.502-0.091,1.142,0.16,1.598c0.228,0.422,0.409,0.422,0.684,0.468
		c0.24,0.331,0.936,0.422,1.255,0.308C249.57,316.861,249.855,316.61,250.027,316.051z M252.204,194.064
		c-0.582,2.087-3.582,2.065-3.582,2.065c1.096,5.087,4.049,7.7,4.049,7.7c3.32,2.806,4.507-0.72,4.507-0.72
		c-2.465-2.828-2.942-8.179-2.942-8.179C253.095,194.931,252.204,194.064,252.204,194.064z M256.835,311.899
		c0.022,0.218,0.49,1.427,0.787,1.505c0.435,0.365,0.946,0.479,1.46,0.229c0.65-0.319,1.268-1.243,0.937-1.984
		c-0.229-0.502-0.479-0.423-0.924-0.468c-0.411-0.034-0.399-0.229-0.377-0.616c0.022-0.468,0.067-0.514-0.343-0.729
		c-0.468-0.251-0.639-0.159-0.97,0.285C257.04,310.621,256.78,311.283,256.835,311.899z M253.881,306.013
		c0.64,0.137,1.712,0.365,2.134-0.239c0.285-0.398,0.514-0.98,0.468-1.482c-0.08-0.811-0.741-1.426-1.357-1.882
		c-0.331-0.239-1.025-0.515-1.335-0.125c-0.011-0.013-0.034-0.013-0.046-0.013C252.866,302.146,251.839,305.603,253.881,306.013z
		 M275.292,226.734c0,0,0.285-11.213-0.569-15.514c0.536,2.099,1.756,7.198,1.756,9.947c0,0,0.206,9.468,4.084,9.468
		c0,0,2.43,0.331,4.276-1.528c0,0-2.464-11.122-1.802-18.251c0,0-2.189-2.179-2.852-4.563c0,0-1.348,2.202-3.812,2.202
		c0,0-0.398-0.034-0.97-0.285c-0.935-0.399-2.315-1.38-3.021-3.708c0,0-0.65,2.361-2.842,2.361c0,0-0.639-0.046-1.551-0.365
		c-0.924-0.309-2.11-0.901-3.205-1.996c0,0-0.947,1.791-2.853,1.791c0,0-2.942,0.217-3.992-1.791c0,0-1.141,2.84-3.992,2.464
		c0,0-0.092,13.209,3.513,13.015c0,0,3.913-0.661,2.101-11.691c0,0,1.894,0.958,1.894,5.189c0,0-0.946,8.213,3.753,10.495
		c0,0,1.563,0.502,3-0.936c0,0-1.711-9.515-0.854-14.75c0,0,0.924,19.779,4.848,19.779
		C272.201,228.068,273.468,228.559,275.292,226.734z M275.943,190.825c0,0,4.905,19.322,8.896,18.844c0,0,3.525-2.087-3.272-19.529
		c0,0-0.901,1.688-1.688,1.688c0,0,1.494,4.586,1.494,6.434c0,0-1.848-4.471-2.61-6.456
		C278.761,191.806,277.278,192.17,275.943,190.825z M274.677,191.566c0,0-2.979,2.487-5.704-0.239c0,0,3.56,15.97,7.026,16.152
		c0,0,2.235,0.798,3.046-3.924C279.045,203.555,275.337,196.653,274.677,191.566z M275.908,236.807c0,0,1.803-3.799,1.803-6.365
		c0,0-0.946-1.335-0.946-3.046c0,0-2.521,2.682-3.798,3.422c0,0-1.46,11.465-2.955,15.114c0,0,1.05-13.3,1.528-15.49
		c0,0-0.9-0.628-1.688-1.894c-0.616-0.981-1.164-2.35-1.164-4.096c0,0-1.049,1.598-2.76,1.598c0,0-2.282,12.285-3.616,16.175
		c0,0,0.854-10.267,1.904-16.917c0,0-2.476-1.996-3.138-5.509c0,0-1.356,1.928-3.342,1.928c0,0-2.361-0.217-3.022-3.548
		c0,0-0.695,2.566-2.566,2.566c0,0-0.057,0.012-0.159,0.012c-0.708,0-3.662-0.297-5.076-4.951c0,0-0.741,2.76-2.761,2.76
		c0,0-5.407,0.184-6.65-10.46c0,0,2.385,8.841,6.56,8.841c0,0,2.989-0.649,1.598-6.9c0.901,3.137,3.08,9.342,6.104,9.125
		c0,0,2.167-0.582,2.167-3.741c0,0-0.741-7.231-1.209-9.993c0,0-0.57-0.559-1.473-1.472c0,0,0.331,1.095-1.858,1.666
		c0,0-1.756,0.547-4.368-2.076c0,0-0.685,2.555-2.567,2.555c0,0-3.308,0.184-5.35-5.326c0.272,0.479,2.601,4.54,4.803,4.061
		c0,0,2.853-0.491,1.426-5.555c0,0,2.636,6.206,5.271,5.27c0,0,1.859-0.502,1.142-3.422c0,0-1.427-2.783-2.281-4.414
		c0,0-3.058,0.787-5.339-1.495c0,0-0.297,1.814-1.962,1.951c0,0-3.389,1.392-5.385-6.514c0,0,2.352,6.24,5.054,5.042
		c0,0,2.042-0.901,0.456-5.612c0.285,0.65,2.853,6.388,5.11,5.076c0,0,1.825-1.393,0.239-5.932c0.64,1.563,2.486,5.44,4.607,4.221
		c0,0,1.302-1.38,0.059-6.708c0.318,1.095,1.882,5.829,5.076,4.905c0,0,2.133-1.518-0.31-6.696c0.812,1.551,3.343,6.011,5.202,4.938
		c0,0,2.623-0.695,0.125-7.506c0.616,1.529,3.251,7.644,6.582,7.644c0,0,1.894-0.913,1.209-5.282
		c0.594,2.259,1.997,5.875,4.963,5.476c0,0,2.326-0.82,1.072-5.521c0.854,1.858,2.234,3.9,4.163,3.9c0,0,2.339-1.356,0.171-7.848
		c0.639,1.756,2.955,7.426,6,6.707c0,0,2.932-1.973,0.708-9.399c0.376,1.05,3.456,9.399,7.472,9.399c0,0,1.438,0.023,2.179-1.255
		c0,0,0.364,1.938-0.753,2.59c0,0,1.334,4.848,2.087,7.7c0,0-2.565-5.226-3.318-7.506c0,0-2.807,0.422-4.38-1.142
		c0,0,5.611,22.051,9.694,22.051c0,0,1.997,0.284,2.955-0.662c0,0-0.273,2.28-2.521,2.521c0,0,0.616,6.217-0.72,11.258
		c0,0-0.66-4.848-1.322-11.977c0,0-1.289-0.148-2.566-1.426c0,0-0.616,30.502,9.08,24.901c0,0,1.038-11.043-0.297-25.427
		c-1.745-18.729-7.54-43.142-24.958-56.214c0,0-8.966-6-20.236-6c-0.091,0-4.62,0.022-4.62,4.62c0,0,1.369,10.289-2.795,19.472
		c0,0-4.276,9.844-16.974,9.844c0,0-6.707,0.925-9.399-10.836c0,0-2.565-8.737,2.557-19.392c0,0,7.482-13.974-4.951-28.096
		c0,0-12.718-12.058-25.449,4.997c0,0-3.525,4.848-3.525,17.109c0,0,0.708,15.686,0,20.1c0,0-1.597,10.984,5.692,15.548
		c0,0-0.696-10.027,2.43-11.829c0,0,1.277-1.004,4.563,4.563c0,0,1.517,2.202,3.65,3.445l-0.992,1.346
		c-0.285,1.917-0.013,5.134,0.342,7.929l-1.837,0.239c-0.354-2.737-0.741-5.646-1.164-8.737c0,0-5.669,1.175-5.133,4.563
		c0,0,7.129,32.419,9.695,48.868l-1.723,0.423c-2.247-9.64-6.034-26.351-9.114-42.399c0,0-3.992-4.803-5.133-8.67
		c0,0-1.095,0.503-1.917,1.917c0,0-2.361,3.068-4.221,0c0,0-4.415-6.068-12.686-10.357c0,0-6.273-2.988-6.273-9.833
		c0,0,1.004-10.7-3.285-14.966c0,0-10.951-9.16-25.369,6.913c0,0-10.894,12.343-16.004,35.716c-1.825,8.36-2.92,18.125-2.498,29.248
		c0.354,9.627,1.848,20.259,4.951,31.872c0,0,4.917,3.183,6.206-6.787c0,0,1.141-15.971,0.57-24.39c0,0-2.146-0.354-3.993-3.992
		c0,0-0.57,19.962-0.936,26.738c0,0-1.141-2.646-1.141-22.895c0,0-2.692,2.054-4.403-0.593c0.262,0.16,4.164,2.338,8.727-12.365
		c-0.992,4.255-1.769,9.662,0.388,10.541c0,0,4.551,2.063,8.966-12.788c-0.205,0.776-2.635,10.506,0.376,10.506
		c0,0,3.274,1.357,8.979-16.472c0,0-3.138,13.267,0,13.688c0,0,3.593,2.146,9.273-16.038c-0.091,0.662-1.552,10.552,1.209,10.552
		c0,0,3.422,0.787,6.913-13.758c0,0-1.141,0.707-3.273,0.354c0,0-1.277,4.118-2.556,7.666c0.034-0.365,0.411-3.399,1.415-7.814
		c0,0-0.57-0.489-0.57-2.133c0,0-0.936,2.578-3.958,2.281c0,0-1.745-0.57-1.745-2.43c0,0-2.716,4.426-6.058,4.426
		c0,0-2.43-0.068-3.034-3.034c0,0-1.607,2.601-4.677,1.677c0,0-1.984-0.787-2.704-2.703c0,0-2.179,6.845-4.277,10.473
		c0,0,0-0.138,0.022-0.376c0.046-1.027,0.251-4.027,0.833-6.742c0,0-3.491,1.346-4.061-2.715c0,0-2.213,4.426-4.711,3.854
		c0,0-2.486-0.296-1.711-5.35c0,0,0.067,3.49,1.779,3.49c0,0,2.703,1.071,7.403-9.023c-0.239,0.57-2.988,7.415,0.012,8.304
		c0,0,2.92,0.502,8.258-8.715c-0.284,0.593-3.422,7.267-0.764,8.293c0,0,2.795,1.745,8.806-7.711
		c-0.786,1.334-4.003,7.072-1.392,8.133c0,0,4.095,1.096,9.445-9.103c-0.937,1.938-3.274,7.266-0.821,7.894
		c0,0,1.734,1.438,6.854-7.197c-1.061,1.882-3.604,6.844-1.3,7.129c0,0,3.24,0.89,6.833-5.327c-0.113,0.376-1.732,5.932,1.152,6.97
		c0,0,2.84,1.836,5.418-5.373c-0.057,0.582-0.662,6.229,1.426,7.654c0,0,3.422,2.133,3.422-3.422c0,0,0.148,5.418,1.859,6.125
		c0,0,2.704,1.825,3.273-2.418c0,0,0.787,5.088-3.764,3.765c0,0-1.688-0.365-2.122-2.122c0,0-2.611,7.175-0.81,7.644
		c0,0,2.453,1.904,5.133-4.017c0,0-0.502,6.776-7.518,5.396c0,0-3.434,14.691,0,14.019c0,0,4.004-0.57,7.231-9.979
		c0,0-1.278,10.414-7.7,12.263c0,0,0.855,9.695,0,14.646c0,0,4.277-1.05,5.133-14.646c0,0,1.712,34.038,9.218,42.491
		c0,0,0.707-0.846,1.231-2.122l0.969,0.365c-0.639,1.653-1.505,3.217-2.314,4.803c-0.937,1.813-2.566,5.053-4.608,5.69
		c-0.354-0.81-0.022-1.664-0.479-2.475c-0.536-0.97-1.095-0.925-2.11-0.479c-1.061,0.443-1.563,0.854-2.44,1.619
		c-0.434,0.389-1.54,1.255-1.552,1.438c-1.015,0.811-2.053,1.917-2.828,2.875c-1.313,1.62-2.59,3.217-3.901,4.825
		c-1.917,2.373-3.525,4.848-5.156,7.586c-1.072,1.791-2.213,3.354-3.228,5.179c-0.616,1.106-1.585,2.406-1.688,3.673
		c1.244-1.335,2.567-2.909,4.062-4.163c2.179-1.813,4.666-3.98,7.095-5.419c-0.435,0.992-1.369,2.247-1.403,3.31
		c1.221-1.222,3.114-1.917,3.753-2.795c0,0.011,0.058-0.013,0.058-0.034l0.091,0.034c-0.125,0.354-0.331,1.038-0.376,1.38
		c-0.125,0.845-0.137,1.597-0.262,2.453c-0.218,1.572-0.399,3.318-1.096,4.768c-0.764,1.62-1.858,3.183-2.92,4.643
		c-0.775,1.085-2.145,2.351-2.453,3.616c1.654,0.342,2.532-1.904,3.686-2.44c-0.389,1.118-1.038,2.327-1.209,3.49
		c1.151,1.289,1.848-1.243,2.476-2.246c0.811-1.302,2.167-2.248,3.309-3.24c1.334-1.152,2.703-2.315,4.151-3.342
		c1.77-1.244,2.418-3.411,4.004-4.654c-0.479,1.54-1.984,4.025-0.958,5.669c0.435-0.97,1.483-2.92,2.477-3.285
		c-1.072,1.917-1.519,4.598-0.937,6.708c0.524-1.027,0.924-2.75,1.62-3.502c-0.468,1.858-1.334,4.882-0.798,7.061l-1.517,0.138
		c-0.194-0.661-0.411-0.992-1.038-1.313c-0.514-0.273-1.188-0.297-1.758-0.251c-0.98,0.08-1.482,0.891-1.448,1.849
		c0.022,0.673,0.263,1.289,0.582,1.882l-0.937,0.172c-0.434-0.959-1.62-1.77-2.681-1.529c-1.072,0.251-1.734,0.821-2.566,1.506
		c-0.844,0.696-1.151,1.483-1.597,2.453c-0.319,0.729-0.479,1.46-0.604,2.213h-0.046c-0.033,0.205-0.103,0.41-0.318,0.502
		c-0.205,0.092-0.411-0.022-0.627,0c-0.205,0.022-0.514,0.092-0.696,0.138c-0.969,0.229-0.913,1.757-0.273,2.314
		c0.456,0.389,0.981,0.65,1.528,0.399c0.422-0.194,0.696-0.604,0.844-1.038c0.194-0.57-0.033-1.506,0.765-1.677
		c0.342-0.08,0.615-0.068,0.958-0.251c0.411-0.205,0.752-0.628,1.025-0.992c0.502-0.686,0.114-1.644,0.924-2.03
		c1.198-0.594,1.027,1.38,1.302,1.928c0.216,0.456,0.774,0.468,1.231,0.422c0.342-0.033,0.547-0.251,0.718-0.524l0.469,0.069
		c-0.285,0.342-0.547,0.707-0.855,1.003c-0.559,0.535-1.482,0.022-2.202,0.022c-0.866,0-1.437,0.616-1.677,1.438
		c-0.147,0.536-0.114,1.186,0.104,1.688c0.125,0.274,0.342,0.616,0.57,0.812c0.148,0.125,0.354,0.205,0.501,0.33l-0.045,0.046
		c0.274,0.422,0.913,0.548,1.334,0.331c0.525-0.273,0.799-0.925,0.993-1.46c0.547-1.427,1.54-0.31,2.281,0.238
		c0.685,0.515,1.356-0.398,1.825-0.844c0.615-0.604,0.958-1.335,1.083-2.19c0.012-0.067,0.022-0.137,0.022-0.217l0.947,0.091
		c-0.045,0.331,0.022,0.696,0.273,0.867c0.092,0.229,0.57,0.628,0.855,0.696c0.365,0.091,0.775-0.103,1.118-0.263
		c0.775-0.376,1.05-1.096,1.472-1.779c0.422-0.673,1.015-1.106,1.597-1.643c0.217-0.205,0.411-0.536,0.524-0.913l0.947,0.172
		c-0.091,0.285-0.148,0.593-0.16,0.935c-0.023,0.399-0.023,0.812,0.114,1.176c0.137,0.376,0.523,0.912,0.924,1.083
		c0.193,0.365,0.844-0.021,0.993-0.284c0.296-0.524,0.238-0.845,0.9-0.98c0.514-0.114,1.118-0.183,1.426-0.719
		c0.285-0.525-0.079-1.118-0.388-1.574c-0.365-0.514-0.821-1.038-1.356-1.381c-0.206-0.137-0.411-0.193-0.604-0.193l-0.171-0.523
		c0.183,0,0.331-0.104,0.559-0.184c0.298-0.092,0.594-0.022,0.891,0.045c0.388,0.104,0.593,0.16,0.936-0.137
		c0.125-0.114,0.217-0.262,0.274-0.422l0.662,0.148c-0.034,0.147-0.058,0.297-0.08,0.443c-0.137,0.867-0.148,1.859,0.228,2.67
		c0.24,0.524,0.981,1.277,1.644,1.277l-0.034,0.582c-0.331-0.023-0.65,0.011-0.981,0.125c-0.854,0.297-1.54,0.649-1.973,1.449
		c-0.57,1.095-1.118,2.063-0.673,3.272h0.034c0.046,0.251,0.125,0.49,0.171,0.604c0.193,0.434,0.331,0.685,0.695,0.89l-0.137,0.217
		c-0.342-0.183-0.98,0.628-1.198,0.958c-0.229,0.344-0.593,0.73-0.958,0.924c-0.434,0.252-0.991,0.469-1.288,0.926
		c-0.765,1.209-0.034,3.719,1.573,3.719c0.616,0,1.473-0.012,2.031-0.285c0.524-0.24,0.833-0.685,1.289-0.98
		c0-0.013,0-0.013,0-0.013h0.012c0.023-0.376,0.707-0.272,0.947-0.147c0.388,0.193,0.604,0.615,1.026,0.753
		c0.729,0.251,1.552-0.309,1.221-1.083c-0.274-0.616-1.083-1.164-1.574-1.632c-0.239-0.218-0.434-0.389-0.627-0.649l1.038-0.114
		c0.708,0.753,1.974,1.026,3.103,0.832c1.357-0.238,2.933-3.513,3.218-1.79c0.216,1.254,0.866,1.38,2.007,1.026
		c1.278-0.388,1.026-1.038,1.426-2.088c0.376-1.004,1.163-1.231,1.928-0.502c0.65,0.639,0.775,1.962,1.975,1.757
		c0.33-0.057,0.581-0.184,0.764-0.354h0.947c-0.787,0.73-1.198,2.201-0.971,3.046c0.148,0.56,0.524,1.038,0.925,1.427
		c0.398,0.376,0.649,0.479,1.163,0.627c0.354,0.103,0.331,0.172,0.719,0.08c0.273-0.058,0.491-0.114,0.742-0.239
		c0.456-0.229,0.89-0.536,1.22-0.924c0.628-0.73,0.491-1.895,0.229-2.749c-0.159-0.515-0.468-0.993-0.866-1.335l0.183-0.924
		c0.034,0.011,0.068,0.021,0.103,0.021c0.65,0.058,1.666-0.114,2.214-0.502c0.649-0.456,1.632-1.049,1.632-1.928l0.376,0.034
		c-0.058,0.628,0.126,1.242,0.719,1.482c1.221,0.479,2.201-0.318,2.909-1.255c0.844-1.118,0.422-2.715,1.197-3.867
		c0.171-0.263,0.354-0.523,0.685-0.523c0.445-0.013,0.616,0.456,0.775,0.82c0.318,0.72,0.354,1.678,1.289,1.678
		c1.004,0,2.02-0.947,1.301-1.929c-0.319-0.434-0.719-0.673-1.152-0.958c-0.272-0.172-0.627-0.297-0.685-0.649
		c-0.125-0.879,1.151-0.662,1.607-0.64c0.855,0.034,1.46-0.217,2.18-0.649c0.639-0.399,0.49-1.393,1.448-1.506
		c0.365-0.034,0.775,0.067,1.188,0.113l-0.194,1.188c-0.468-0.046-0.947,0.057-1.243,0.354c-0.147,0.148-0.183,0.376-0.309,0.502
		c-0.125,0.125-0.285,0.068-0.398,0.138c-0.389,0.251-0.457,0.741-0.423,1.187c0.046,0.581,0.274,0.811,0.686,1.163
		c0.343,0.309,0.479,0.57,0.98,0.616c0.229,0.021,0.456-0.046,0.673,0c0.49-0.034,0.946-0.377,1.209-0.787
		c0.331-0.514,0.399-1.289,0.239-1.938l1.164-0.114c0.217,0.569,0.912,0.582,0.992,1.267c0.067,0.479,0.126,1.882,0.854,1.813
		l0.013,0.08c0.297-0.034,0.536,0.103,0.81,0.103c0.263,0,0.49-0.057,0.719-0.137c0.662-0.264,0.855-0.741,0.891-1.393
		c0.046-0.729,0.707-1.313,0.936-2.029c0.034-0.126,0.068-0.251,0.104-0.39h1.016c-0.058,0.331-0.023,0.708,0.125,0.981
		c0.068,0.125,0.319,0.388,0.536,0.434c0.273,0.514,0.947-0.022,1.164-0.318c0.41-0.57,0.171-1.268-0.343-1.7
		c-0.184-0.148-0.423-0.364-0.661-0.364l-0.059-1.096c0.093,0,0.194-0.012,0.297-0.022l-0.012-0.092
		c0.217-0.159,0.423-0.113,0.616-0.273c0.183-0.171,0.194-0.354,0.239-0.582c0.206-0.97-0.719-1.367-1.129-2.133
		c-0.41-0.753-0.49-1.402-1.026-2.008l1.209-0.159c0,0,1.711-3.993-2.566-10.461c0,0,2.566,2.281,3.423,4.369
		c0,0,0.33-5.361-2.67-8.361c0,0,1.733,0.686,2.682,2.669c0,0,0.364-3.774-1.415-6.627c0.263,0.399,2.487,3.56,5.863,4.813
		c0,0,3.331,1.518,7.415,8.646c0,0,1.049,0.435,1.049-1.038c0,0-0.342-0.979-1.187-2.167c0.64,0.707,1.438,1.507,2.087,1.883
		c0,0,0.855,0,0.855-0.855c0,0-3.707-4.757-4.084-6.946c0,0,3.514,5.521,5.896,5.896c0,0,1.164-0.456,0.377-1.231
		c0,0-4.084-2.761-6.079-6.56c0,0-1.528-3.764-3.377-6.753c0,0,2.372,2.134,4.984,3.229c0,0-1.323-1.711-2.225-4.447
		c0.251,0.238,4.255,4.095,6.695,4.882c0,0-4.231-7.519-6.468-12.08c0,0-4.607-10.779-12.16-14.064c0,0-1.974-0.879-2.338,0.9
		c0,0-0.536,4.608-0.263,6.993c0,0,0.308,0.547-0.479,0.272c0,0-5.485-3.171-7.858-10.733c0,0-1.083-5.978-5.03-8.477l0.445-0.639
		c1.745,1.038,3.593,2.487,4.346,4.221c0,0,3.753-20.281,3.273-28.962c0.193,2.121,1.105,10.334,3.674,10.334
		c0,0,2.087-1.528,2.087-8.749c0,0-0.193,11.316,3.046,12.264c0,0,3.229-0.092,3.229-11.783c0,0-0.284,16.061,3.514,18.434
		c0,0,2.544,0.879,4.356-11.988c-0.865,7.653-2.28,23.762,0.971,25.209c0,0,1.05,0.754,2.565,0.377c0,0,2.271-17.521,5.316-26.465
		c-0.297,1.222-5.646,23.842-3.981,35.214c0,0,0.57,2.042,2.042,2.042C266.738,266.898,271.539,246.411,275.908,236.807z
		 M273.822,285.651c1.517-6.103,12.354-32.486,12.354-32.486c3.799-9.319,6.079-14.156,6.079-14.156
		c0,5.43-3.217,13.198-3.217,13.198c-15.959,38.214-13.745,43.813-13.745,43.813c22.837-23.271,27.49-58.256,27.49-58.256
		c-1.859,1.859-4.255,0-4.255,0c-6.273,26.807-13.3,35.11-13.3,35.11c8.36-17.933,11.715-36.445,11.715-36.445
		c-2.419-2.418-3.548-5.932-3.548-5.932c-1.724,5.36-6.456,4.415-6.456,4.415C272.681,274.838,273.822,285.651,273.822,285.651z
		 M281.613,233.441c-1.654,8.692-4.791,15.31-4.985,15.707c2.419-7.23,3.138-16.711,3.138-16.711c-0.729,0-1.106-0.113-1.288-0.272
		c0.057-0.31,0.103-0.604,0.146-0.867c0,0-0.523,0.523-0.146,0.867c-0.913,5.019-3.571,15.388-3.571,15.388
		c-7.688,24.525-4.836,31.084-4.836,31.084c6.912-24.947,10.54-31.084,10.54-31.084c3.376-5.829,5.133-13.494,5.133-13.494
		c-1.607-1.607-1.356-2.168-1.312-2.248C283.107,233.133,281.613,233.441,281.613,233.441z M211.573,106.48
		c56.135,0,101.626,50.522,101.626,112.839c0,2.921-0.104,5.817-0.297,8.682c-3.992,58.256-47.829,104.158-101.329,104.158
		c-53.487,0-97.325-45.902-101.317-104.158c-0.193-2.863-0.297-5.761-0.297-8.682C109.958,157.002,155.45,106.48,211.573,106.48z"/>
	<path d="M215.315,181.676c0,0,5.703,32.92-0.126,49.711l-2.1-0.719c1.632-4.87,3.64-15.65,0.845-36.354
		c0,0-0.811-4.848-1.448-9.308c0,0-0.068,0.183-0.183,0.582l-2.271-0.376c0.708-2.933,1.517-5.728,1.517-5.728
		c-2.577,0-3.706-1.711-3.706-1.711l0.991-1.346c0.845,0.479,1.769,0.821,2.737,0.821c0,0,1.598,0.193,1.598-2.749
		c0,0,0.171-7.518-3.193-14.213c0,0-3.787-8.407-3.787-15.686c0,0,0.137-9.559,3.559-9.559c0,0,4.495-0.776,3.422,6.844
		c0,0-3.137,11.772,0,17.499c0,0,4.996,8.315,2.853,14.738C216.022,174.125,214.596,176.977,215.315,181.676z"/>
	<path d="M303.719,313.564c-2.465-2.452-4.494-0.569-4.494-0.569c-2.281,2.28-2.281,5.133-2.281,5.133
		c1.061-0.229,3.901-2.623,3.901-2.623c0.89,4.904,2.874,3.193,2.874,3.193C306.034,316.382,303.719,313.564,303.719,313.564z
		 M336.502,265.381c0,0,3.719,2.989,6.707,0c0,0,3.354-5.92-0.854-10.129c0,0,0.719,3.854,0,7.414c0,0-1.427-2.566-4.711-2.566
		C337.644,260.1,332.589,261.457,336.502,265.381z M316.108,316.279c9.272-37.644,18.685-47.477,18.685-47.477
		c-3.137,0-3.285-4.711-3.285-4.711v-6.559C314.258,271.563,316.108,316.279,316.108,316.279z M338.363,226.448
		c0,0,1.141-1.288,4.141-1.288c0,0-3.992-5.842-9.845-4.985c0,0,8.704-1.745,9.252-4.574l1.711,0.184
		c-0.034,0.444-0.092,0.854-0.137,1.255c0,0-0.913,3.422-3.423,3.422c0,0,9.273,3.559,6.845,27.092l2.578,0.992
		c-0.855,1.996-1.381,3.285-1.381,3.285c0,1.849,0.514,2.566,0.514,2.566c2.555-6.273,11.133-14.406,11.133-14.406
		c1.951,11.314-4.038,26.761-10.916,39.912l-2.578-0.97c7.563-14.601,9.354-28.244,9.354-28.244
		c-4.494,4.494-6.992,10.038-6.992,10.038c0.719,6.479-5.271,9.139-5.271,9.139h-2.28c0,0-0.422,0-2.556,0
		c0,0-6.514,8.691-12.147,24.309c-2.054,5.691-3.993,12.308-5.464,19.757c0,0-11.339,41.704-40.86,46.267
		c0,0,10.825,3.31,19.118-2.259c0,0-0.046,0.046-0.147,0.139c-1.13,1.015-8.682,7.527-18.913,10.392l-0.547-1.985
		c0.216-0.045,0.422-0.091,0.627-0.147c0,0-4.528-1.22-9.549-5.431c0,0,28.654-5.133,39.641-30.936c0,0-27.264,18.845-48.834,28.723
		l-0.9-2.019c2.988-1.209,6.593-3.833,7.393-9.457l1.517,0.138c-0.057,0.866-0.205,1.802-0.444,2.794c0,0,2.134-4.209,2.134-7.196
		c0,0,1.004,2.418,0.502,5.84c0,0,1.643-3.775,1.643-7.482c0,0,1.779,1.711,1.357,5.271c0,0,1.346-3.273,1.346-7.05
		c0,0,2.327,2.556,1.917,5.406c0,0,1.574-3.422,1.574-7.118c0,0,2.145,1.985,1.643,4.917c0,0,2.566-1.858,1.289-5.921
		c0,0,2.247,2.248,3.388,3.39c0,0-0.046-2.11-1.392-4.529c0,0,2.213,2.145,5.338,2.145c0,0-2.418-1.711-3.49-3.502
		c0,0,3.855,2.065,6.491,1.357c0,0-2.544-1.563-4.038-3.057c0.309,0.158,3.296,1.664,6.536,1.061c0,0-2.11-1.323-3.64-2.852
		c0,0,4.21,1.711,6.775,1.141c0,0-3.354-1.141-4.426-3.639c0,0,5.418,2.978,8.84,1.004c0,0-10.334-3.068-9.627-10.063
		c0,0-14.476,14.236-29.054,16.78l-0.319-0.89c8.452-3.034,22.05-9.675,34.804-23.578c0,0,4.698-4.712,10.267,0.844
		c0,0,5.247,5.886-5.567,12.126c0,0,6.206,4.323,10.268-3.274c0,0,1.573-3,0.284-8.133c0,0-3.991-35.361,12.126-57.319
		c0,0,7.267-9.561,18.821-3.708c0,0-1.448-3.57-7.859-4.563c0,0,3.515-1.072,7.289,0c0,0-2.304-3.137-7.289-3.137
		c0,0,3-2.566,7.859-1.277c0,0-2.145-3.286-6.844-3.286c0,0,4.312-1.711,6.844-0.854c0,0-2.281-2.853-6.707-2.853
		c0,0,3.285-0.992,6.707-0.992c0,0-2.145-2.145-6.272-2.145c0,0,1.962-2.281,5.133-1.141c0,0-1.004-1.996-5.133-1.996
		c0,0,1.276-1.711,4.563-1.711C343.073,228.16,341.363,226.448,338.363,226.448z"/>
	<path d="M28.809,161.908c0.113-1.905-0.422-3.981-2.682-5.327c0,0,7.985-2.477,11.407,4.563l0.399,0.811
		c-4.118,1.928-7.152,6.57-8.612,9.171c2.703-6.068,0.479-9.981,0.479-9.981c0,0.273-0.012,0.536-0.034,0.798L28.809,161.908z"/>
	<path d="M64.684,225.97c-1.895,3.285-7.791,9.034-7.791,9.034l-0.878-0.604c11.088-15.741,15.89-30.913,17.715-43.301l1.836,0.274
		c0.08,1.243,0.147,2.36,0.205,3.365c0.604,18.741-8.384,28.769-8.384,28.769c0.354,3.707,1.722,7.574,3.308,10.95l-2.418,0.411
		C66.179,229.996,64.684,225.97,64.684,225.97z"/>
	<path d="M86.05,257.396c0,0,1.938-0.708,4.356,1.277c0,0-0.878-3.263-2.179-4.563c0,0-0.855-0.765-2.18,0
		C86.05,254.111,86.483,255.469,86.05,257.396z M91.149,256.198c0,0,4.666,6.183-1.426,11.51c0,0,4.938,15.924,11.235,31.084
		l-2.51,0.696c-7.471-17.135-11.806-31.118-11.806-31.118c-0.422,0-0.811-0.023-1.175-0.059l0.217-2.51
		c1.025,0.114,3.559,0.08,4.038-2.92c0,0,0.684-4.277-6.376-2.146c0,0,0.456-3.799-0.502-6.627c0,0-0.776,0.444-1.553,1.313
		l-1.836-1.757c0,0,3.104-4.026,8.236-4.026c0,0,8.556-1.426,16.541,13.597c0,0,0.798,1.232,1.938,3.65l-1.95,0.73
		C101.438,261.696,97.296,257.008,91.149,256.198z"/>
	<path d="M84.647,144.979c-5.133,6.376-0.855,10.46-0.855,10.46C82.936,151.071,84.647,144.979,84.647,144.979z M99.236,132.055
		c1.209,1.209,0,5.133,0,5.133c6-5.179,9.331-10.084,9.537-10.392C105.498,130.059,99.236,132.055,99.236,132.055z M99.236,128.918
		c0,0,21.639-9.548,24.799-19.677c0,0-19.369,6.844-25.859,10.552C98.176,119.793,99.236,124.207,99.236,128.918z M79.228,177.969
		c0,0-1.711,0.285-0.855,2.658c0,0,2.669,3.729,6.274,0.854c0,0,1.996-2.087-0.57-3.513
		C84.076,177.969,81.463,176.68,79.228,177.969z M100.103,163.995c0,0-6.924,14.122-23.784,5.704c0,0,0.479,3.284,0.239,7.699
		c0,0,4.997-6.992,10.426-1.563c0,0,3.559,3.993,0,11.978C86.985,187.813,104.107,187.243,100.103,163.995z M85.719,287.454
		c-0.206-0.833-7.188-27.605-18.32-39.687C67.581,248.51,73.844,272.579,85.719,287.454z M93.794,349.303
		c2.064,4.825-0.695,12.799-0.82,13.164c11.053-6.389,9.273-21.616,9.273-21.616C100.411,345.744,93.794,349.303,93.794,349.303z
		 M97.741,155.086c0-4.072-2.829-6.296-2.829-6.296c-2.771,4.802-8.27,9.98-8.27,9.98C92.883,161.314,97.741,155.086,97.741,155.086
		z M94.958,117.796c0,0,2.247-1.403,5.967-2.978c0,0-4.975-0.582-9.674-3.866C91.25,110.952,93.532,114.511,94.958,117.796z
		 M81.225,249.172c0,0-1.769,1.585-1.769,4.494l1.836,1.757c-0.98,1.118-1.973,2.92-1.369,5.396c0,0,1.05,3.992,5.339,4.916
		c0,0,0.159,0.034,0.422,0.068l-0.217,2.51c-1.688-0.192-2.716-0.707-2.716-0.707c2.829,6.8,9.068,30.286,9.068,30.286
		c2.863,2.862,5.225,6.844,7.141,11.087c4.883,10.85,6.845,23.407,6.845,23.407c1.356,5.134,3.262,10.552,5.988,16.027l-0.821,0.398
		c-1.779-3.594-3.434-7.449-4.608-11.235c0,0,2.658,27.56-18.068,29.271c0,0,6.845-8.167,3.423-16.347
		c0,0-18.251,6.845-29.089-5.509c0,0-8.954-8.101-7.974-24.537l0.89,0.067c-1.105,17.282,10.758,26.271,10.758,26.271
		c21.388,10.415,32.932-6.56,32.932-6.56c10.016-15.775-8.122-39.354-8.122-39.354c-32.624-40.336-26.43-62.647-26.43-62.647
		c2.76,7.414,12.263,17.967,12.263,17.967c-0.468-3.034,0-5.602,0-5.602c-2.727-2.738-6.137-9.845-8.669-15.729l2.418-0.411
		c2.624,5.646,5.817,9.959,5.817,9.959c-1.518-7.985-0.194-18.822-0.194-18.822c3.525-3.513,8.943-5.509,8.943-5.509
		c-3.239-1.711-6.662-3.993-6.662-3.993c-2.1-11.578-2.259-12.411-2.829-21.354c-0.034-1.096-0.104-2.214-0.205-3.365l-1.836-0.274
		c2.532-17.259-0.708-29.122-0.855-29.646c3.719,7.677,12.389,8.384,12.389,8.384c11.11,0,13.974-13.255,13.974-13.255
		c-10.996,12.263-18.104,1.426-18.104,1.426c-4.984-10.688,4.13-17.829,4.13-17.829c0-5.133-0.992-9.97-0.992-9.97
		c-21.515,23.202-28.519,44.544-30.812,56.248l-0.764-0.148c0.753-3.753,1.802-8.235,3.228-12.81
		c2.031-6.65,4.838-13.54,8.612-18.822c0,0-21.855-2.852-7.231-25.255c-0.125,0.513-2.624,10.996,5.896,10.996
		c0,0,6.468-1.142,4.188-11.02c0,0-3.8-13.882-3.8-19.586c0,0-3.81,1.334-10.653-2.475c0,0,11.03-11.021,17.11-19.77
		c0,0,9.696-14.064,20.156-14.064l0.125,0.707c-12.648,2.35-21.17,16.495-21.17,16.495c-2.533,4.38-12.263,14.406-12.263,14.406
		c5.565,1.415,8.84-3.147,8.84-3.147c-2.281,8.704,3.422,28.381,3.422,28.381c0.399,2.51,0.045,4.495-0.445,5.909
		c-0.57,1.643-1.322,2.51-1.322,2.51c-7.051,8.259-13.062-1.004-13.062-1.004c-3.571,12.981,11.258,11.271,11.258,11.271
		c2.088-5.476,13.553-17.043,13.553-17.043c2.635-4.563,0-10.631,0-10.631c-7.7-15.821-1.427-22.813-1.427-22.813
		c-4.164,13.529,8.271,28.951,8.271,28.951c5.27,9.695,1.643,26.167,1.643,26.167c4.803-2.772,5.772-5.772,5.772-5.772
		c0-1.289-1.164-3.285-1.164-3.285c2.418-2.418,3.855-3.854,3.855-3.854c5.11-16.677-5.978-26.373-5.978-26.373
		c-7.62-7.631-5.84-15.537-5.84-15.537c3.24-16.746,13.426-17.43,20.189-15.844c3.673,0.854,6.331,2.384,6.331,2.384
		c-20.246-3.902-23.233,10.47-23.233,10.47c-2.281,10.985,10.62,15.217,10.62,15.217C89.928,78.773,125.7,91.72,128.951,92.963
		l-0.627,1.951c-0.514-0.16-1.038-0.331-1.574-0.502c0,0-33.365-11.407-24.239,18.821c0,0,17.681-7.415,24.958-8.691
		c0,0,0.649-0.855,1.666-3.924l1.711,0.262c0,0-1.267,16.152-34.758,43.153c0,0,22.222,31.711-4.837,47.339
		c0,0-6.045,2.852-11.657-1.905c0,0,4.105,6.091,9.147,7.232c0,0-4.482,0.753-8.008,0c0,0,3.729,3.137,7.813,3.798
		c0,0-4.949,0.854-7.802-0.65c0.229,0.262,3.924,4.357,7.608,4.357c0,0-4.095,0.854-7.62,0c0,0,3.536,3.137,6.582,3.137
		c0,0-4.483,1.802-6.582,1.141c0,0,4.105,3.138,7.243,3.138c0,0-5.054,0.662-7.243,0.662c0,0,6.582,5.521,12.753,6.844
		c0,0-9.627,3.9-14.031,9.799c0,0,4.152-2.099,8.236-1.426c0,0-6.137,1.597-8.236,5.225c0,0,3.958-1.141,7.951-0.57
		c0,0-7.38,2.762-7.951,5.418c0,0,2.989-1.334,6.274-1.334c0,0-5.418,2.543-6.274,6.319c0,0,2.226-3.273,6.274-2.51
		c0,0-4.209,1.688-6.24,5.179c0.251-0.272,1.608-1.585,4.688-0.81c0,0-4.027,2.749-4.711,5.304
		C79.514,249.605,79.822,249.172,81.225,249.172z"/>
	<path d="M398.398,220.597c0,0,3.774-4.482,5.556-6.272c0,0-0.229,0.033-0.674,0.091l-0.285-2.201
		c0.628-0.057,0.959-0.114,0.959-0.114c-1.084-1.585-2.122-2.852-3.172-3.878l1.688-0.354c1.528,1.597,4.188,3.82,7.507,4.415
		c0,0-4.176,1.527-7.985,10.46c0,0-3.034,7.221-8.933,6.08c0,0,3.88,4.402,5.521,10.402l-2.225,0.57
		c-1.118-4.335-4.838-10.996-15.31-20.213C381.938,220.266,392.283,227.966,398.398,220.597z"/>
	<path d="M211.516,308.181c0.695-0.468,1.665-1.13,1.882-1.997c0.309-1.288-1.357-1.517-2.213-1.175
		c-0.867,0.343-1.836,1.255-2.19,2.156c-0.147,0.398-0.16,0.912,0.194,1.243c0.217,0.205,0.719,0.388,1.026,0.388
		c0.184,0,0.604-0.113,0.604-0.147C210.843,308.591,211.345,308.294,211.516,308.181z M205.482,311.329
		c-0.274,0.81-0.388,1.585,0.034,2.35c0.171,0.319,0.582,0.627,0.946,0.753c0.194,0.058,0.469,0.011,0.707-0.034
		c0.104-0.012,0.423-0.103,0.582-0.172l0.034,0.059c0.707-0.456,0.844-1.118,0.958-1.929c0.114-0.787,0.171-1.974-0.285-2.67
		C207.454,308.169,205.801,310.359,205.482,311.329z M207.193,303.492c1.209-0.901,2.213-3.31,2.053-4.804
		c0.297,0.821,0.114,1.962,0.16,2.829c0.422-0.272,0.65-0.559,1.049-0.924c0.399-0.354,1.073-1.026,1.313-1.483
		c0.456-0.878,0.548-1.346,0.685-2.133c0.444,0.867,1.175,1.519,1.723,2.327c0.707,1.084,1.222,2.373,1.507,3.639
		c0.308,1.347,0.318,2.477,0.272,3.846c-0.046,1.209-0.217,2.783,0.08,3.924c1.072-1.313,1.414-1.779,1.973-2.704
		c0.274,1.096,0.525,1.78,0.959,3.194c0.343,1.151,0.503,1.573,1.062,3.639l0.559,1.026c-0.342,0.126-0.774,0.615-0.89,0.811
		c-0.251,0.41-0.285,1.004-0.171,1.46c0.171,0.753,1.004,1.369,1.745,1.472l-0.184,0.925c-0.547-0.479-1.266-0.707-1.996-0.479
		l-0.012,0.114c-0.433-0.046-0.821,0.126-1.15,0.434h-0.947c0.992-0.9,0.16-3.113-0.867-3.753c-1.003-0.649-4.392,0.673-4.106-0.945
		c0.127-0.766,0.937-1.563,1.278-2.26c0.342-0.695,0.798-1.54,0.936-2.305c0.318-1.779-1.79-2.703-3.125-1.597
		c-1.164,0.97-1.051,3.205-1.232,4.54c-0.217,1.597-0.331,3.033-1.54,4.276c-1.027,1.062-2.521,1.198-3.89,0.855
		c-0.56-0.148-1.483-0.661-1.985-0.354c-0.559,0.344-0.468,1.46-0.308,1.975c0.091,0.263,0.238,0.489,0.422,0.685l-1.038,0.114
		c-0.137-0.184-0.342-0.423-0.582-0.491c-0.559-0.171-1.198,0.137-1.711,0c-0.708-0.193,0.137-0.979,0.067-1.494
		c-0.033-0.285-0.113-0.443-0.228-0.502l0.137-0.217c0.045,0.023,0.114,0.058,0.171,0.08c0.354,0.147,0.56,0.183,0.958-0.034
		c0.411-0.229,0.514-0.662,0.674-1.084c0.228-0.616,0.786-1.631,1.368-1.996c0.674-0.41,1.62-0.021,1.666,0.833
		c0.023,0.319-0.183,0.639,0.023,0.924c0.205,0.285,0.547,0.309,0.833,0.319c0.342,0,0.593,0.091,0.844-0.217
		c0.194-0.239,0.354-0.524,0.399-0.821c0.137-0.707-0.138-1.779-0.525-2.384c-0.547-0.867-1.392-1.301-2.314-1.654
		c-0.445-0.171-0.913-0.297-1.369-0.308l0.034-0.582c0.103,0,0.193-0.022,0.284-0.058l0.013,0.034
		c0.719,0.045,0.729-1.495,0.774-1.997c0.069-0.718,0.104-1.437,0.023-2.145l0.57-0.058c1.015-0.9,1.551-1.631,2.053-2.669
		c0.365-0.753,0.673-1.552,0.9-2.373c0.285-0.945,0.594-2.189,0.845-3.125C207.489,300.846,207.193,302.317,207.193,303.492z"/>
	<path d="M134.724,365.33c-2.235-2.795-4.357-5.557-6.365-8.236c-14.521-19.529-22.792-35.487-22.792-35.487
		c-2.327-4.607-4.357-8.932-6.091-12.854c-4.769-10.678-7.403-18.377-8.146-20.613c2.498,7.084,14.236,29.854,14.236,29.854
		C112.376,332.911,133.422,363.437,134.724,365.33z"/>
	<path d="M119.198,313.564c0,0,3.855-6.272,10.985-1.711c0,0,1.141,1.426,3.707,3.741l-1.277,1.118c0,0-0.867,11.565-9.422,14.624
		c0,0,0.034,0,0.103,0l0.104,2.544c-0.936-0.561-1.449-0.867-1.449-0.867c-3.833-1.7-4.985-3.058-5.122-3.229
		c1.334,3.183,2.955,6.046,4.769,8.635l-1.688,0.104c-8.567-11.771-15.89-26.271-21.457-39.034l2.51-0.696
		c3.787,9.068,8.054,17.863,12.046,22.792c-0.193-0.502-3.49-9.377-3.033-24.503c0,0-0.046-17.339-5.75-29.464l1.95-0.73
		c2.511,5.339,6.696,16.46,7.758,33.046c0,0-0.365,34.712,11.691,27.754C125.62,327.687,114.134,322.348,119.198,313.564z
		 M126.978,312.424c0,0-4.529-1.974-6.013,3.468c0,0-0.764,3.022,2.226,3.022c0,0,2.578-1.062,1.289-4.347
		c0,0,2.063,3.047,4.779,4.347C129.26,318.914,130.753,313.564,126.978,312.424z"/>
	<path d="M70.296,98.119C72.727,87.704,82.56,81.054,82.56,81.054c5.145-3.753,10.369-4.825,14.955-4.643
		c8.235,0.308,14.418,4.643,14.418,4.643c4.141,2.477,16.392,7.654,16.392,7.654c-7.415-0.707-18.958-6.411-18.958-6.411
		c-1.449-0.719-2.863-1.278-4.231-1.688c-7.267-2.213-13.016-0.593-13.016-0.593c-10.563,1.849-16.542,12.286-16.542,12.286
		c-6.137,8.578-3.147,22.073-3.147,22.073c2.92,23.327-4.038,25.688-4.403,25.791c0.775-0.969,1.38-2.19,1.836-3.56
		c2.601-7.824,0.434-20.521,0.434-20.521C68.734,104.542,70.296,98.119,70.296,98.119z"/>
	<path d="M220.949,52.491c0,1.3,0.844,2.36,1.882,2.36s1.883-1.061,1.883-2.36c0-1.301-0.845-2.361-1.883-2.361
		S220.949,51.191,220.949,52.491z M211.231,55.104c1.072,0,1.938-1.175,1.938-2.611c0-1.449-0.866-2.612-1.938-2.612
		c-1.083,0-1.951,1.164-1.951,2.612C209.28,53.928,210.147,55.104,211.231,55.104z M213.169,56.963
		c2.853,11.019,10.644,18.434,10.644,18.434h6.468c-11.624-9.673-13.803-18.514-13.803-18.514c-0.891-0.89-1.163-1.164-1.163-1.164
		C214.323,56.723,213.169,56.963,213.169,56.963z M216.512,50.027c-1.106,0-2.009,1.164-2.009,2.602
		c0,1.449,0.901,2.612,2.009,2.612c1.106,0,1.995-1.164,1.995-2.612C218.507,51.191,217.618,50.027,216.512,50.027z M207.032,58.195
		c0,7.13-8.84,18.399-8.84,18.399c7.985,0,21.24-1.141,21.24-1.141c-6.981-8.351-8.271-17.979-8.271-17.979
		c-1.643,0-2.35-1.061-2.35-1.061C207.74,58.263,207.032,58.195,207.032,58.195z M241.538,93.043
		c-3.354-4.209,0.365-10.106,0.365-10.106c-3.57,0-4.278,0-4.278,0C234.123,89.005,241.173,92.861,241.538,93.043z M242.828,90.636
		c4.916,0,6.205-4.563,6.205-4.563c1.347-5.853-3.787-7.347-3.787-7.347c-5.485-1.858-7.197,2.853-7.197,2.853
		c2.933-0.57,6.058,0.067,6.058,0.067C240.58,85.184,242.828,90.636,242.828,90.636z M245.713,95.176c0,0,5.897,4.985,14.646,6.012
		c0,0-7.882-3.98-11.406-7.518C248.954,93.67,247.242,95.176,245.713,95.176z M264.308,77.586c1.209,6.673,11.886,5.35,11.886,5.35
		c-3.33-4.666-8.555-6.206-8.555-6.206C263.361,75.396,264.308,77.586,264.308,77.586z M273.25,72.077
		c8.84-8.842,3.138-19.586,3.138-19.586c-0.696,2.145-1.813,3.707-3.148,4.836c-5.43,4.573-14.532,2.008-14.532,2.008
		c-1.244,6.559-7.563,6.365-7.563,6.365c-6.515,0-7.313-6.937-7.313-6.937c-10.21,8.532-20.829,1.574-21.239,1.3
		c8.406,10.962,25.231,10.962,25.231,10.962c17.681,0,26.259-12.719,26.784-13.517c0.011-0.023,0.021-0.034,0.021-0.034
		c-4.426,13.837-25.392,15.97-25.392,15.97c-14.533,0.867-26.659-9.97-26.659-9.97c3.001,7.118,12.833,11.979,12.833,11.979
		c4.997,0,6.274,0,6.274,0c8.555-0.867,10.552,7.688,10.552,7.688c8.133,2.1,13.334,1.289,13.334,1.289
		c-3.924-2.635-4.779-6.057-4.779-6.057c-1.071-5.202,4.494-5.281,4.494-5.281c6.845-0.924,14.419,7.962,14.419,7.962
		C279.706,76.069,273.25,72.077,273.25,72.077z M272.714,99.922c0,0,5.602,4.083,12.148-2.453
		C284.497,97.606,278.43,99.922,272.714,99.922z M318.513,111.522c5.477,2.065,7.859,5.418,7.859,5.418
		c2.704-4.677,4.426-11.259,4.426-11.259C326.304,110.165,318.513,111.522,318.513,111.522z M323.681,126.922
		c1.142-4.848,2.281-6.411,2.281-6.411c-12.273-8.852-31.803-12.411-31.803-12.411c2.281,4.221,6.98,8.84,6.98,8.84
		C311.407,119.371,323.681,126.922,323.681,126.922z M292.107,104.678c0,0,11.783,1.905,21.674,5.51c0,0,12.354-11.406-2.854-15.97
		c0,0-9.89-2.087-22.438,1.905C288.49,96.123,290.772,99.74,292.107,104.678z M321.673,135.34c-0.719-3.855,0-4.711,0-4.711
		c-5.988-5.989-14.259-7.267-14.259-7.267C316.677,132.625,321.673,135.34,321.673,135.34z M281.304,83.199
		c0,0,7.381-2.853,13.653-6.274c0,0,23.385-12.936,36.309-6.468c0,0-0.091,0.091-2.565,2.566c0,0,11.487-1.231,21.172,15.627
		l-0.685,0.411c-3.855-6.604-12.686-17.704-27.515-14.749c0,0,1.096-2.544,3.855-4.141c0,0-10.7-2.566-35.225,10.552
		c0,0-4.268,2.156-8.979,3.855c0,0,0.262,4.221-0.993,6.411c0,0-0.569-2.281-1.209-5.134c0,0-12.057,2.853-27.171,0.707
		c0,0,0.444,2.02-1.712,4.996c0,0,16.529,10.268,34.644,2.853c0,0,18.833-7.985,31.084-3.285c0,0,11.306,5.407,4.712,16.837
		c0,0,27.445-10.118-2.134-22.096c0.753,0.137,12.833,2.44,15.525,10.255c0,0,3.867,8.988-4.268,24.092
		c0,0-5.886,10.129-5.155,17.11c0,0,2.59,2.145,5.008,3.285c0,0-2.727,1.984-4.644,4.963l-1.983-0.742
		c0.866-1.369,1.848-2.783,2.932-4.221c0,0-23.281-7.653-37.473-38.682c0,0-27.97,9.069-48.514-8.259c0,0-9.206-5.202-2.386-14.933
		c-0.354,0.114-6.205,2.202-5.578,8.26c0,0-1.46-4.688,1.278-8.26c-0.297,0.16-5.054,2.829-5.054,8.26c0,0-1.916-3.616,0.774-8.271
		c0,0-4.563,1.334-4.563,8.271c0,0-1.711-4.837,0.263-8.26c-0.24,0.104-4.038,1.905-4.038,8.26c0,0-1.175-4.415-0.251-8.271
		c0,0-2.67,2.76-3.524,8.271c0,0-0.765-3.742-0.765-8.271c0,0-2.749,4.7-2.988,7.849c0.058-1.347,0.113-5.624-1.313-7.849
		c0,0-1.733,5.521-2.487,8.271c0,0,0.24-6.229-1.802-8.271c0,0-0.844,4.666-1.984,8.271c0,0,0.206-5.943-2.305-8.271
		c0,0,0.046,5.635-1.471,8.271c0,0,0.787-6.274-2.829-8.271c0,0-0.285,5.418-0.947,8.271c0,0-0.593-6.627-3.331-8.26
		c0.068,0.297,1.106,4.323-0.444,8.26c0,0,0.125-6.65-3.867-8.271l0.091-1.084c0.582,0.058,1.198,0.091,1.825,0.091
		c0,0,8.624-5.852,12.398-19.392c0,0-0.569-0.433-1.071-1.928l0.936-1.518c0.24,0.138,0.502,0.206,0.765,0.206
		c1.084,0,1.95-1.164,1.95-2.611c0-1.448-0.866-2.612-1.95-2.612v-1.882h1.938c0,0,0-22.951,0-29.658c0,0,2.146,18.114,2.498,29.658
		h2.282c0,0,1.711-15.114,7.699-21.742c0,0-5.201,10.768-5.636,17.896c0,0,2.511-4.254,6.365-7.973
		c4.448-4.278,10.677-7.86,16.905-3.422c-1.54-0.913-11.966-6.046-22.62,14.886h2.988c0,0,5.202-13.402,16.187-12.193
		c0,0-2.749,4.677,2.635,6.354c0,0,5.922,1.563,6.913-5.92c0,0,1.038-6.844-8.373-8.384c0,0-0.079-0.012-0.238-0.022l0.057-0.9
		c3.765,0.273,7.895,2.019,10.997,7.187c0,0,4.187,8.943-3.229,13.313c0,0-7.607,3.992-12.171-2.281c0,0-4.472-2.761-8.556,4.938
		c0,0,5.133-1.015,5.133,4.323c0,0,0.206,4.05-3.228,4.05c0,0,7.414,8.933,20.715-1.141c0,0-0.184,7.415,6.845,7.415
		c0,0,4.563-0.765,6.468-6.468c0,0,14.064,6.08,16.347-9.126c0,0,13.118,10.072,3.615,25.666
		C277.848,74.45,281.304,76.161,281.304,83.199z"/>
	<path d="M195.99,303.88c0.045-0.992-1.597-1.243-2.281-0.97c-0.593,0.238-0.695,1.597-0.514,2.179
		c0.103,0.331,0.297,0.523,0.604,0.594c0.035,0.011,0.172-0.058,0.218-0.058c0.091,0,0.16,0.114,0.273,0.103
		c0.24-0.045,0.536-0.388,0.73-0.547h0.012c0.011-0.012,0.022-0.012,0.022-0.022c0.113-0.068,0.217-0.148,0.284-0.205
		C195.683,304.701,195.968,304.324,195.99,303.88z M196.527,295.85c0.147,0.707,1.105,1.038,1.711,1.22
		c0.593,0.194,1.939,0.331,2.476-0.078c0.981-0.206,0.662-1.553,0.297-2.202C200.052,293.077,196.001,293.442,196.527,295.85z
		 M195.91,300.195c0.365,0.285,1.38,0.365,1.825,0.331c0.342-0.022,0.491-0.183,0.854-0.113c0.24,0.033,0.469,0.067,0.686,0.183
		c0.422,0.217,0.821,0.65,1.129,0.992c0.445,0.49,0.65,0.434,1.095,0.103c0.012-0.011,0.034-0.021,0.045-0.033
		c0,0,0-0.012-0.011-0.012c0.798-1.13-0.103-2.636-1.301-3.022c-0.936-0.297-2.327-0.582-3.262-0.229
		c-0.365,0.139-0.901,0.264-1.152,0.594C195.569,299.317,195.569,299.933,195.91,300.195z M199.618,304.679
		c0.673,0.091,1.289-0.56,1.175-1.267c-0.103-0.695-0.753-1.414-1.448-1.427c-0.913-0.012-1.951,0-1.929,1.176
		c0,0.444,0.194,0.765,0.57,0.97c0.319,0.183,0.65,0.297,0.993,0.422c0.114,0.034,0.217,0.08,0.308,0.114l0.023-0.046
		C199.402,304.667,199.503,304.667,199.618,304.679z M185.77,309.972c0.627,0.593,1.551,0.41,1.917-0.502
		c0.411-1.038,0.365-2.271,0.067-3.309l1.518-0.138c0.114,0.49,0.308,0.937,0.582,1.313c0.331-2.121,0.742-4.346,1.574-6.342
		c1.312-3.148,3.068-5.979,4.277-9.148c1.357-3.604,2.453-7.427,2.064-11.305c-0.16-1.654-0.833-3.126-2.76-3.046
		c-1.46,0.067-3.114,1.084-3.138-1.05c-0.011-1.347,1.118-3.56,1.255-3.786c0,0.011-0.011,0.021-0.011,0.045
		c0.045-0.045,0.058-0.08,0.058-0.125c0.342-0.741,0.81-1.255,1.151-1.734c0.593-0.821,1.152-1.745,1.757-2.578
		c1.198-1.643,2.338-3.272,3.24-5.099c0.696-1.426,1.483-2.703,1.962-4.209c0.331-1.026,1.334-3.068,0.56-3.981
		c-0.65,0.354-1.483,0.867-1.289-0.49c0.113-0.844,0.9-1.231,1.289-1.894c1.312-2.281-1.585-0.559-2.235,0.114
		c-1.095,1.105-2.499,1.894-3.046,3.422c-0.547,1.518-0.285,3.08-0.593,4.631c-0.171,0.867-0.435,1.712-0.753,2.521l-0.97-0.365
		c0.422-1.026,0.73-2.315,0.479-3.673c0,0-0.867-4.849,2.281-7.131c0,0,6.273-4.367,7.037-10.643c0,0,1.997,9.787-0.569,17.396
		c0,0-4.049,10.448-8.738,15.138c0,0,2.601-0.924,4.46,0.924c0,0,3.229,2.943,0,13.494c0,0,1.129,0.719,2.373,0
		c0,0,0-13.688,3.81-14.44c0,0,4.083-1.813,6.741,3.798c0,0,0.524-7.413-0.548-11.314c0,0-2.589-7.13-0.593-13.118
		c0,0,1.198-6.365,0.593-10.267c0,0,1.688,6.946,5.021,10.267c0,0,1.025,1.038,1.803,3.787l-0.719,0.193
		c-0.184-0.604-0.435-1.176-0.8-1.723c-1.665-2.476-4.573-1.494-5.121,1.231c-0.273,1.381-0.319,2.691-0.229,4.118
		c0.091,1.62,0.901,3.092,1.357,4.62c0.422,1.392,0.97,2.862,1.266,4.3c0.331,1.586,0.319,3.285,0.377,4.904
		c0.068,2.214,0.171,4.369,0.285,6.57c0.034,0.73,0.147,1.791-0.343,2.419c-1.289,1.644-3.229-1.54-3.775-2.373
		c-0.593-0.89-1.083-1.848-1.825-2.669c-0.479-0.548-0.9-0.845-1.54-1.164c-0.342-0.159-0.604-0.33-0.946-0.296
		c-0.218,0.011-0.821-0.217-1.334,0.296c-0.65,0.662-0.686,1.62-0.845,2.122c-0.251,0.844-0.468,1.473-0.513,2.373
		c-0.183,3.855,0.251,7.677,0.434,11.476c0.184,4.062,0,8.134-0.217,12.138c-0.046,0.764-0.114,1.563-0.273,2.314l-0.57,0.058
		c-0.068-0.547-0.205-1.083-0.456-1.598c-0.376-0.774-0.901-1.187-1.552-0.434c-0.467,0.536-0.73,1.13-0.878,1.803l-0.662-0.147
		c0.057-0.184,0.08-0.376,0.067-0.57c0-0.434-0.125-0.878-0.388-1.221c-0.273-0.354-0.924-0.878-1.346-0.901
		c-0.593-0.034-2.167,0.24-2.384,1.004c-0.514,0.274-0.251,1.243,0.067,1.574c0.24,0.239,0.696,0.548,0.993,0.707
		c0.125,0.068,0.239,0.104,0.331,0.104l0.171,0.523c-0.398,0-0.764,0.262-1.072,0.616c-0.364,0.41-0.615,0.844-0.775,1.323
		l-0.947-0.173c0.171-0.569,0.16-1.22-0.239-1.573c-0.559-0.479-1.528-0.171-1.997,0.273c-0.569,0.524-0.833,1.323-1.334,1.895
		c-0.604,0.685-1.54,1.163-2.063,1.903c-0.104,0.139-0.171,0.331-0.206,0.536l-0.947-0.091c0.057-0.661-0.08-1.506-0.547-1.928
		c-0.685-0.616-1.666-0.616-2.43-0.16c-0.389,0.229-0.686,0.56-0.958,0.891l-0.469-0.068c0.047-0.091,0.104-0.193,0.148-0.296
		c0.525-1.152,0.479-2.396-0.034-3.536l0.937-0.172c0.251,0.49,1.004,1.644,1.597,1.712L185.77,309.972z"/>
	<path d="M169.959,38.426c0,0-0.855-9.035,9.787-10.746c0,0,7.975-1.334,12.342,3.034l0.013,0.012l-0.184,0.285
		c-2.531-1.597-5.704-2.978-9.113-2.978c0,0-11.34-0.068-9.274,9.273c0,0,1.779,4.985,7.7,3.422c0,0,2.565-1.141,2.565-2.852
		c0,0,0.319-1.677-1.356-2.351c0,0,10.38-2.246,17.042,12.469h2.418c0,0-2.703-11.624-21.377-16.393c0,0,11.761-1.858,21.594,11.909
		c0,0-0.97-3.639-2.35-7.7c-1.072-3.16-2.396-6.593-3.708-8.771c0,0,7.415,8.338,8.771,20.955h0.479v1.882
		c-1.072,0-1.95,1.164-1.95,2.612c0,0.022,0,0.045,0,0.067l-1.198,0.08c0-1.448-0.936-2.624-2.076-2.624
		c-1.151,0-2.076,1.175-2.076,2.624l-1.141-0.08c0-0.022,0-0.045,0-0.067c0-1.301-0.844-2.361-1.882-2.361
		c-0.194,0-0.388,0.034-0.559,0.103V49.73c0.046,0,0.091,0,0.147,0c0,0-0.376-4.745-7.038-7.026c0,0-1.894,5.51-7.791,5.51
		C179.746,48.213,169.959,48.407,169.959,38.426z"/>
	<path d="M211.402,407.444c0,0-1.243,3.034,0,6.742c0,0,0.377,1.996,1.518,1.996c0,0,1.427,0.479,0-5.419
		C212.918,410.764,212.541,409.532,211.402,407.444z M178.036,391.565c0,0-22.187,0-37.199-13.095l0.811-0.958
		c14.236,11.338,30.286,12.912,38.579,12.479c11.727-0.605,23.955,2.43,31.974,12.272c8.021,9.833,3.821,17.955,3.821,17.955
		c-2.226,3.855-6.046-1.278-6.046-1.278c-3.765-4.996,0-14.121,0-14.121c-3.023-3.022-4.791-2.853-4.791-2.853
		c-3.194,5.533-0.627,15.126-0.627,15.126c3.787,9.548,11.179,7.552,11.179,7.552c2.476-1.05,3.981-2.715,4.825-4.688l1.105,0.388
		c-1.322,3.148-3.844,6.012-8.646,6.012c0,0-17.111-1.335-9.891-28.142C203.131,398.216,197.621,391.565,178.036,391.565z"/>
	<path d="M212.2,359.398c-3.57,8.121-14.578,14.578-14.578,14.578c4.277,3.137,1.518,9.319,1.518,9.319
		c6.936,0,12.639,6.08,12.639,6.08c3.81-3.799,16.072-9.502,16.072-9.502c-1.905-3.799,0.854-7.7,0.854-7.7
		c-4.871-3.022-10.938-12.775-10.938-12.775C213.307,359.923,212.2,359.398,212.2,359.398z M193.492,375.311
		c-2.35,2.352-4.278,5.134-4.278,5.134c2.566,0,5.704,1.712,5.704,1.712C197.656,377.421,193.492,375.311,193.492,375.311z
		 M234.558,375.311c-4.563-0.854-4.414,1.837-4.414,1.837c0,2.979,1.711,3.582,1.711,3.582c2.988,0,5.703-0.854,5.703-0.854
		C235.629,377.946,234.558,375.311,234.558,375.311z M223.298,357.938c-1.288,0-2.43,0.468-2.43,0.468
		c2.43,4.051,11.979,13.77,11.979,13.77c1.289,0,3.422,0,3.422,0c-0.855-2.566,0-4.848,0-4.848
		C230.144,364.326,223.298,357.938,223.298,357.938z M195.671,373.314c0,0,9.376-6.171,12.65-13.916c0,0-0.228,0.159-1.996-0.993
		c0,0-7.563,8.818-12.548,9.776c0,0-0.251,2.853-1.244,4.563C192.534,372.744,194.759,372.402,195.671,373.314z M192.774,350.021
		c-0.57,2.384-5.989,5.988-5.989,5.988c4.278,2.567,6.844,9.411,6.844,9.411c4.118-2.373,10.929-8.167,10.929-8.167
		C197.805,355.063,192.774,350.021,192.774,350.021z M170.826,338.66c-3.217-1.209-5.063,2.715-5.063,2.715
		c2.35,0,6.057,1.778,6.057,1.778c-4.129,3.503-2.133,5.566-2.133,5.566c4.198-0.434,3.913-5.498,3.913-5.498
		C173.599,339.527,170.826,338.66,170.826,338.66z M236.782,364.565c0,0,0.662-4.643,4.472-6.845c0,0-3.9-2.657-6.422-6.41
		c0,0-4.13,3.56-8.795,4.895C226.037,356.204,230.6,362.478,236.782,364.565z M273.217,378.722
		c0.694-0.251,14.748-5.566,27.98-20.533c5.44-6.147,10.732-13.916,14.92-23.646l0.719,0.297
		c-3.171,7.517-8.167,17.11-15.398,25.356c0,0-17.088,22.073-52.336,26.671c0,0-8.897,0.774-16.004,1.493
		c-0.331,0.034-0.673,0.068-1.004,0.114c5.419-0.729,12.992-1.882,19.779-3.388c6.901-1.54,12.992-3.435,15.194-5.636
		c0,0-25.951-2.465-24.812-20.054c0,0-10.699,16.334,8.692,22.757c0,0-26.511-0.854-36.069,8.703c0,0,1.267,3.148,3.56,5.407
		c0,0,4.482-4.928,14.853-6.046c1.323-0.148,2.749-0.228,4.267-0.228c0,0,31.939,0,51.332-14.683c0,0,5.816-4.46,11.396-9.854
		c-4.938,6.354-9.765,15.172-4.276,20.657c0,0,4.117-13.402,14.258-26.715c0,0,6.594-10.769,9.686-20.545l0.833,0.274
		c-1.598,5.053-4.711,13.402-9.662,20.635c0,0-13.837,18.252-13.837,31.096c0,0-8.407-3.147-8.407-12.695
		c0,0-18.067,13.779-54.377,13.779c0,0-11.601,0.194-14.829,5.521c0,0,3.423,5.704,3.423,14.83c0,0,0.171,4.23-1.427,8.053
		l-1.105-0.388c3.057-7.142-2.544-18.264-2.544-18.264c-11.978-20.681-42.628-20.109-42.628-20.109
		c23.235-3,9.547-21.39,9.547-21.39c-1.996,34.084-37.495,12.264-37.495,12.264c14.259,5.133,14.829-2.431,14.829-2.431
		c-11.602,6.696-30.229-13.392-30.229-13.392c9.399,7.836,17.682,4.563,17.682,4.563c-10.905-1.438-21.023-10.608-29.818-22.678
		l1.688-0.104c12.708,18.092,34.745,22.188,34.745,22.188c-1.87,3.239-9.012,5.201-9.012,5.201c8.373,4.277,19.209,0,19.209,0
		c0,7.7-4.757,10.164-4.757,10.164c18.822,2.761,19.483-16.062,19.483-16.062c-10.267,5.326-19.29-2.19-19.29-2.19
		c-11.933-7.836-32.92-20.452-38.579-23.84l-0.104-2.544c0.867-0.034,6.891-0.411,9.309-4.529c-0.218,0.502-1.996,4.54-3.49,6.035
		c0,0,3.547-0.879,6.319-3.64c0,0-1.106,4.757-2.247,5.896c0,0,4.175-0.33,5.681-3.764c0,0-1.106,4.038-2.555,5.475
		c0,0,2.36-0.49,4.437-2.555c0,0-0.718,2.841-0.718,5.271c0,0,2.373-2.476,4.255-3.56c-0.08,0.251-1.084,3.229,0.011,5.544
		c0,0,1.004-3.273,3.138-5.407c-0.114,0.343-1.803,5.612,1.607,7.415c0,0,0.046-5.498,2.396-6.845c0,0-1.916,4.666,0.673,9.524
		c0-0.297,0.057-5.601,3.867-6.673c0,0-2.589,4.563,0,8.556c0,0,0.924-3.64,2.202-5.933c-0.376,0.775-1.483,3.616,0.946,5.933
		c0,0,2.076-9.775,6.274-11.271c0,0-0.046-0.011-0.148-0.034l0.742-1.711c2.703,1.164,5.602,2.316,8.681,3.457
		c0,0,5.716,3.798,2.134,9.98c0,0-3.696,7.415-14.83,2.281c0,0,3.147,10.313,14.259,6.936c0,0,11.555-2.942,15.696-13.062
		c0,0,23.521,18.958,43.621,0.992c0,0,6.991,12.742,20.681,12.068c0,0,1.962-0.091,4.301-1.049l0.9,2.019
		c-1.313,0.604-2.602,1.175-3.866,1.7c0,0-6.594,3.547-12.035,0c0,0-0.719,12.924,19.963,14.92c0,0-1.711-3.707-8.841-5.852
		c0,0,3.56-3.992,13.54-3.126c0,0,4.586,1.176,9.354,0.147l0.548,1.985c-4.54,1.276-9.616,1.825-14.887,0.854
		c0,0,4.473,6.058,14.26,3.992C279.468,373.314,274.973,377.695,273.217,378.722z"/>
	<path d="M21.76,206.965c0,0,3.422-3.616,8.749-3.616c0,0-10.837-6.844-10.837-18.822c0,0-1.619-8.646,7.791-18.058
		c0,0,1.187-2.145,1.347-4.563l0.958,0.033c-0.274,6.206-3.811,9.604-3.811,9.604c-7.277,7.278-4.141,17.407-4.141,17.407
		c5.281,16.243,25.38,17.248,25.38,17.248c-3.854,2.565-10.266,0-10.266,0c-10.975-3.285-17.682,4.699-17.682,4.699
		c36.219,19.826,48.767-22.813,48.767-22.813c0,9.422-8.407,23.955-8.407,23.955c-6.57,11.361-12.125,21.673-12.125,21.673
		c-4.631,9.765-1.016,20.076,1.654,25.518l-0.845,0.319c-0.513-1.026-1.105-2.145-1.802-3.354c0,0-10.985-15.204,6.536-39.434
		c-0.536,0.399-17.453,13.164-23.829,28.198l-1.38-0.581c0.148-0.741,2.84-12.867,20.658-28.05c0,0-12.251,6.98-31.495-3.845
		c0.125,0.125,1.198,1.164,2.27,3.696c0,0,4.849,13.017,18.251,5.281c0,0-6.627,5.565-9.103,18.854l-0.924-0.171
		c0.091-0.764,0.9-7.038,3.217-11.133c0,0-9.502,0-12.924-11.122c0,0-3.08-6.297-7.769-9.398
		C10.364,208.608,15.006,210.068,21.76,206.965z"/>
	<path d="M346.199,337.815c0,0,13.688,4.13,11.544-12.548c0,0-5.054,4.7-8.727-2.144c0,0-3.104,4.276-8.943,2.154
		c0.251,0.344,5.498,7.302,12.251,3.411C352.324,328.69,351.617,337.815,346.199,337.815z M356.464,292.461
		c1.142-5.327,7.586-33.707,10.188-45.126l0.879,0.205c-0.766,3.582-8.979,42.035-10.78,51.821c0,0-6.661-7.802-11.225,0
		c0,0-3.229,4.369-1.142,8.557c0,0,0.959-0.388,2.67,1.323c0,0,4.368-4.745,11.214-3.604c0,0,1.904-10.837,16.54-13.118
		c0,0-4.871,12.515-3.309,22.905l-0.729,0.114c-0.376-2.315-0.753-3.958-0.753-3.958c-0.867-5.567,0-11.704,0-11.704
		c-10.026,5.795-4.996,10.837-4.996,10.837c2.852,2.852,3.569,8.133,3.569,8.133c1.289,12.833-7.129,19.415-7.129,19.415
		c0.422-0.787,0.798-1.54,1.151-2.281c9.126-19.231-3.435-24.971-3.435-24.971c-4.563-1.711-7.551,2.704-7.551,2.704
		c-2.1,3.616,0,6.695,0,6.695c3.058,3.068,5.544,0,5.544,0c1.414-2.44,3.434,0,3.434,0c3.548,6.845,0.297,14.064,0.022,14.657
		c-0.012,0.023-0.022,0.034-0.022,0.034c-6.125,10.62-19.54,5.271-19.54,5.271c-11.682-3.696-9.264-17.247-9.264-17.247
		c2.716,15.832,12.981,9.694,12.981,9.694c-16.974-4.563-6.137-25.803-6.137-25.803c-1.711,8.259,0,11.544,0,11.544
		c2.715,4.277,7.129,0.855,7.129,0.855c3.354-3.354-0.992-8.703-0.992-8.703c-4.289-5.556-1.004-12.97-1.004-12.97
		C347.202,289.473,356.464,292.461,356.464,292.461z"/>
	<path d="M71.585,323.409c0,0-4.151,11.941,4.974,18.251c0,0,6.913,3.833,13.164-2.431c0,0-8.009-1.164-9.537-6.113
		c0,0,11.499-1.871,8.932-13.278c0,0-4.472,6.708-9.411,1.769C79.706,321.606,76.856,326.831,71.585,323.409z M81.703,315.139
		c-3.057,5.293,2.282,5.703,2.282,5.703c6.422-0.855,4.277-14.544,4.277-14.544c10.402,21.959-3.285,28.803-3.285,28.803
		c14.213,2.603,11.407-11.43,11.156-12.604c4.197,13.482-7.301,20.02-7.301,20.02c-10.699,6.184-16.255-1.141-16.255-1.141
		c-7.266-9.981-1.711-22.678-1.711-22.678c2.281,4.141,6.844,1.288,6.844,1.288c3.582-6.204-1.151-10.117-1.151-10.117
		c-6.422-3.855-9.833,1.712-9.833,1.712c-6.548,9.125-2.133,23.384-2.133,23.384c-5.704-5.703-1.859-17.829-1.859-17.829
		c2.145-11.259-4.836-17.829-4.836-17.829c1.141,4.142-1.141,13.837-1.141,13.837c-0.674,2.612-1.062,5.076-1.21,7.38l-0.89-0.067
		c0.137-2.418,0.502-5.008,1.129-7.791c0,0,3.045-13.494-2.087-20.715c0,0,7.917,3.523,12.194,8.908
		c1.426,1.779,2.44,3.787,2.635,5.921c0,0,9.125-4.382,14.453,3.229l1.266,0.319C83.267,313.233,81.703,315.139,81.703,315.139z"/>
	<path d="M371.272,270.766c1.688-3.879,6.535-6.524,6.535-6.524c12.503-9.126,7.232-23.055,7.232-23.055
		c3.799,3.799,6.844,4.745,6.844,4.745c-4.757-15.012-20.92-26.396-20.92-26.396c-3.172-2.1-5.829-4.586-8.054-7.255
		c-9.673-11.533-11.236-26.294-11.236-26.294c14.683,28.541,45.503,26.818,51.32,26.226l0.285,2.201
		c-4.038,0.502-25.483,2.59-39.445-8.327c0.913,0.81,30.172,26.989,32.282,39.902c0,0,1.346-2.009,0.239-6.194l2.225-0.57
		c1.323,4.803,1.221,10.62-3.434,16.027c0,0-1.519-5.327-4.563-6.468c0,0-1.231,10.367-11.407,18.067c0,0-3.685,1.975-5.978,5.19
		L371.272,270.766z"/>
	<path d="M226.047,304.188c-0.865,1.017-0.844,3.059,0.72,2.67c0.742-0.183,1.938-1.164,2.076-1.938
		c0.309-1.644-2.134-2.213-2.887-0.811L226.047,304.188z M233.382,283.473c0.194-0.398,0.298-1.025-0.011-1.369
		c-0.765-0.832-1.803,1.403-1.096,1.757v0.013C232.709,284.065,233.121,284.009,233.382,283.473z M233.336,285.389
		c-0.067,1.027,0.708,1.951,1.688,2.065c0.673,0.308,0.992-0.57,0.913-1.118c-0.092-0.686-0.604-1.243-1.188-1.586
		C234.123,284.385,233.382,284.614,233.336,285.389z M236.462,293.374c0.251,0.229,0.549-0.456,0.616-0.719
		c0.171-0.616,0.273-0.469,0.753-0.845c1.323-1.016-0.707-1.928-1.643-1.858c-1.106,0.067-2.008,0.854-1.825,2.029
		c0.171,1.084,0.855,1.448,1.813,1.393c0.103-0.013,0.183-0.022,0.284-0.034L236.462,293.374L236.462,293.374z M241.88,298.792
		c0.491-0.456,0.616-0.798,0.457-1.574c-0.126-0.649-0.343-1.722-1.231-1.289c-0.479,0.24-0.388,0.434-0.468,0.913
		c-0.092,0.559-0.376,0.273-0.674,0.661c-0.263,0.343-0.046,0.56,0.205,0.775c0.515,0.456,1.038,0.628,1.7,0.514H241.88z
		 M239.131,293.089c-0.685,0-1.049,0.57-1.209,1.129c-0.046,0.103-0.067,0.206-0.079,0.309c-0.125,0.229-0.364,0.41-0.628,0.423
		c-0.455,0.021-1.071-0.184-1.552,0.079c-0.49,0.263-0.559,1.05-0.479,1.54c0.091,0.57,0.398,0.832,0.936,1.026
		c0.992,0.354,1.644-0.434,2.476-0.811c0.992-0.456,1.757-0.64,1.871-1.895C240.535,294.093,240.114,293.077,239.131,293.089z
		 M240.249,302.693c0.435-0.318,0.57-1.335,0.524-1.813c-0.125-1.267-0.924-1.563-1.973-1.666c-0.616-0.057-0.582-0.364-0.959-0.752
		c-0.503-0.514-0.98-0.263-1.482,0.137c-0.594,0.468-1.084,1.916-0.092,2.235c0.389,0.126,0.729-0.184,1.105,0.239
		c0.274,0.309,0.344,0.912,0.457,1.277c0.217,0.65,0.536,1.016,1.197,0.958c0.434-0.046,0.924-0.239,1.267-0.569L240.249,302.693z
		 M243.445,299.18c-0.502,0.184-0.867,0.514-1.096,0.993c-0.273,0.581-0.33,1.221-0.148,1.859c0.114,0.422,0.561,1.141,1.063,1.037
		l0.011,0.079c0.263-0.079,0.662,0.139,0.98-0.091c0.343-0.239,0.524-0.639,0.72-1.004c0.559-1.141,0.569-1.871-0.389-2.658
		C244.198,299.066,243.991,298.975,243.445,299.18z M241.493,292.131c0,0,6.184,8.087,7.232,11.51l-1.209,0.159
		c-0.08-0.08-0.171-0.171-0.264-0.251c-0.593-0.502-1.586-0.821-2.179-0.137c-0.263,0.297-0.297,0.615-0.639,0.878
		c-0.297,0.217-0.593,0.24-0.855,0.444c-0.092,0.068-0.16,0.068-0.263,0.172c-0.068,0.067-0.148,0.239-0.217,0.318
		c-0.138,0.194-0.285,0.297-0.342,0.57c-0.068,0.457,0.067,1.027,0.388,1.356c0.649,0.686,1.779,0.855,2.179-0.112
		c0.194-0.457,0.376-0.856,0.821-1.107c0.445-0.25,0.958-0.057,1.141,0.399c0.16,0.388,0.013,0.845,0.114,1.255
		c0.091,0.411,0.217,0.854,0.559,1.13c0.173,0.147,0.365,0.193,0.57,0.193l0.058,1.096c-0.033,0-0.058,0-0.092,0.011
		c-0.228,0.059-0.547,0.468-0.639,0.673c-0.034,0.093-0.068,0.184-0.091,0.285h-1.017c0.093-0.57,0.013-1.197-0.502-1.539
		c-0.297-0.193-0.729-0.068-1.071-0.138c-0.343-0.057-0.594-0.079-0.946-0.068c-0.399,0.013-0.561-0.171-0.901-0.308
		c-0.354-0.126-0.662-0.012-0.97,0.159c-0.787,0.434-1.255,1.712-0.924,2.578l-1.164,0.113c-0.045-0.205-0.125-0.41-0.229-0.582
		c-0.217-0.363-0.695-0.593-1.187-0.648l0.194-1.188c0.422,0.058,0.82,0.058,1.141-0.206c0.547-0.456,0.878-1.665,0.97-2.338
		c0.125-0.89-0.183-1.951-0.98-2.418c-0.445-0.251-1.54-0.457-1.916,0.045c-0.16,0.229-0.046,0.628,0,0.867
		c0.103,0.49,0.045,1.084-0.365,1.403c-0.388,0.285-0.913,0.376-1.209,0.787c-0.445,0.627-0.879,2.019-1.917,1.757
		c-0.639-0.172-1.368-0.855-2.03-0.285c-0.616,0.536,0.16,1.574-0.57,1.973c-0.33,0.184-0.74,0.068-0.97-0.217
		c-0.239-0.285-0.171-0.615-0.114-0.969c0.114-0.742,0.034-1.608-0.535-2.146c-0.524-0.502-1.381-0.845-2.087-0.649
		c-0.674,0.192-0.925,0.798-1.289,1.334c-0.456,0.674-0.479,1.688,0.171,2.271c0.342,0.309,0.765,0.343,1.187,0.399
		c0.365,0.057,0.924,0.171,0.901,0.616c-0.023,0.443-0.399,0.363-0.73,0.388c-0.318,0.022-0.593,0.091-0.81,0.354
		c-0.274,0.319-0.388,0.754-0.435,1.152c-0.046,0.398,0.068,0.936-0.113,1.313c-0.264,0.536-1.004,0.639-1.357,1.175
		c-0.217,0.318-0.365,0.799-0.398,1.276l-0.376-0.033c0-0.524-0.285-1.176-0.707-1.506c-0.457-0.343-0.947-0.297-1.462-0.343
		c-0.502-0.058-0.911,0-1.367,0.159c-0.24,0.092-0.674,0.172-0.959,0.331h-0.012c-0.046,0-0.08,0.012-0.126,0.022l-0.559-1.026
		c0.901-0.08,1.255-5.43,1.356-6.308c0.445,0.924,0.628,1.802,1.209,2.656c0.479,0.686,1.096,1.688,1.804,2.101
		c-0.023-1.574-0.673-3.114-0.958-4.666c-0.331-1.724-0.445-3.479-0.354-5.259c0.114-2.361,0.16-5.874,2.156-7.528
		c2.179-1.813,2.715,2.795,3.662,3.912c-0.229-1.518-0.058-2.749-0.24-4.289c0.891,1.313,1.289,3.104,2.259,4.427
		c0.913,1.243,2.11,2.087,3.469,2.601c-1.563-2.396-1.975-5.305-2.771-8.02c-0.457-1.585-0.753-3.228-0.901-4.848
		c-0.193-1.916-0.548-3.775-0.799-5.692c-0.308-2.43-1.768-10.301-5.92-8.361c-1.745,0.811-1.996,2.566-2.36,4.277
		c-0.172,0.812-0.298,1.723-0.57,2.477c-0.126,0.377-0.696,1.711-1.118,1.79c-1.699,0.331-1.517-6.946-1.654-7.813
		c-0.205-1.188-0.137-2.464-0.192-3.719c-0.148-2.863-0.148-5.795-0.148-8.704c0-2.11,0.319-4.472-0.272-6.548l0.719-0.193
		c0.33,1.163,0.615,2.646,0.764,4.482c0,0-0.192,9.891,1.519,14.168c0,0,1.334-4.369,3.523-4.369c0,0,3.422-0.479,4.13,4.13
		c0,0,5.749-7.267,4.323-12.399c0,0-1.938-5.281-4.746-8.088c0,0-3.33-3.604-4.276-7.984c0,0-1.563-5.087-3.766-7.038
		c1.198,0.854,4.381,3,8.612,4.858c0,0,1.849,0.674,3.822,1.859l-0.445,0.639c-0.022-0.011-0.034-0.021-0.057-0.034
		c0,0-1.519-1.095-2.511-0.091c0,0,1.87,0.878,0.661,2.088c0,0-0.924,1.163-2.43-1.381c0,0-0.422-2.133-3.787-4.025
		c0.058,0.091,0.594,0.9,1.038,3.125c0,0,0.285,4.277,5.51,7.518c0,0,2.477,1.803,3.901,6.365c0,0,1.517,5.042,5.795,8.36
		c0,0,1.426,1.427,0,1.427c0,0-5.076-1.427-6.08,1.335C233.897,272.077,230.475,277.689,241.493,292.131z"/>
	<path d="M395.147,166.653c0,0,9.695,7.608,8.373,19.78c0,0-0.958,9.879-7.804,14.441c0,0,2.669,0.569,5.327,5.327
		c0,0,0.502,0.719,1.426,1.666l-1.688,0.354c-3.695-3.65-7.313-4.105-12.137-4.105c-0.16,0-0.309,0-0.469-0.012
		c-6.034-0.16-12.263-3.319-12.263-3.319c15.97,3.137,21.674-4.472,21.674-4.472c9.719-12.422-1.563-26.179-1.563-26.179
		c-0.753,1.312-2.189,2.201-2.189,2.201c0-5.624-5.282-10.62-5.282-10.62c-9.547-5.418-14.405,2.852-14.405,2.852
		c-4.152,7.209,1.858,10.483,1.858,10.483c6.695,1.631,7.267-2.715,7.267-2.715c4.711,2.784,5.28,11.054,5.28,11.054
		c0,16.825-17.966,13.551-17.966,13.551c-0.228-0.033-0.456-0.067-0.673-0.113l0.411-2.441c1.129,0.251,1.824,0.217,1.824,0.217
		s7.415,1.529,9.695-5.886c0,0,1.232-6.183-1.527-8.943c0,0-7.209,1.096-10.837-4.175c0,0-0.57-0.936-1.072-2.43
		c-1.152-3.445-1.928-9.844,5.635-14.499c0,0,7.609-3.604,12.938,0c0,0,2.464-4.939,8.167-4.939
		C395.147,153.729,391.632,163.14,395.147,166.653z"/>
	<path d="M372.937,230.795c0,0,12.582,13.723,2.681,27.536c0.582-0.958,7.632-13.209-3.319-26.897c0,0-0.137-0.183-0.363-0.523
		c-1.645-2.327-8.34-11.933-11.236-17.567C361.644,214.859,369.331,227.19,372.937,230.795z"/>
	<path d="M345.321,168.512c-0.171,0.399-1.277,2.133-8.396,3.821c0,0,6.846,1.928,7.563,9.343
		C344.488,181.676,344.202,173.919,345.321,168.512z M367.565,247.392c-0.013,0.035-0.023,0.08-0.034,0.148l-0.879-0.205
		c0.673-2.954,1.084-4.769,1.084-4.769c0.9-8.214-7.849-13.837-7.849-13.837c-3.147,3.49-8.03,14.315-10.402,19.813l-2.578-0.992
		c0,0,7.015-15.604,10.267-21.251c0,0-8.406-11.978-11.829-34.792c0,0-0.775,15.753-1.723,24.274l-1.711-0.184
		c0.011-0.091,0.022-0.183,0.022-0.273c0,0-3,0.708-6.274,0.708c0,0,4.757-1.917,6.114-4.688c-0.239,0.08-3.125,1.084-6.41-0.011
		c0,0,3.217,0.137,6.422-2.715c0,0-3.422,0-5.555,0c0,0,3.935-0.766,6.217-3.582c0,0-2.966,0.593-5.521-0.686
		c0,0,3.937-0.616,5.373-3.103c0,0-3.936,1.438-5.373,0c0,0,4.096-0.867,5.431-3.171c0,0-3.444,0.707-5.431,0
		c0,0,4.232-1.038,5.853-3.856c0,0-3.937,1.917-5.853,0c0,0,4.563-0.456,6.456-3.729c-0.251,0.113-4.116,1.768-11.145-1.403
		c0,0-27.993-14.704-9.205-44.26l1.984,0.741c-0.125,0.194-0.251,0.399-0.365,0.604c0,0,3.16,4.985,7.859,5.978
		c0,0-4.267-15.103,3.423-26.807c0,0,8.109-10.403,5.2-20.807c0,0,3.925,2.704,1.369,14.109c0,0-4.289,9.411,4.414,14.979
		c0,0,0.766-5.384,0.766-12.673l1.231,0.012c-0.08,6.262,0.468,15.719,3.992,20.784c0,0,7.414,12.411,13.688-4.563
		c0,0-7.699,6.708-10.974-0.854c0,0-2.715-4.016,0-11.487c0,0,2.829-7.369,1.688-15.058l1.15-0.171c0,0,3.799,7.231-1.334,16.733
		c0,0-3.992,7.985,1.518,11.031c0,0,7.402,0.103,4.187-9.125c0,0,7.221,5.133,4.757,15.206c0,0-2.281,8.749-10.837,8.749
		c0,0,5.59,7.631,10.313,21.411c2.019,5.909,3.89,12.936,5.087,20.978c0,0-0.695,0.034-1.824-0.217
		c-1.883-32.236-32.111-65.043-32.111-65.043c-2.27,2.282-3.559,7.848-3.559,7.848c5.988,5.989,7.414,9.56,7.414,9.56
		c3.854,8.555-2.008,13.118-2.008,13.118c-6.423,4.699-16.381-2.578-16.381-2.578c0,10.699,11.978,11.978,11.978,11.978
		c7.688,0,12.959-7.688,12.959-7.688c-0.628,9.434-0.502,17.601,0.137,24.674c2.966,33.193,17.134,41.91,17.134,41.91
		c1.187,1.186,2.201,2.36,3.046,3.502c6.354,8.464,4.072,15.171,4.072,15.171c-2.704,12.845-1.733,23.933-1.733,23.933l1.928,1.277
		c-1.05,1.46-1.813,3.171-1.813,5.076C371.385,277.119,363.241,269.728,367.565,247.392z M334.941,150.592
		c3.388,3.981,5.121,3.719,5.121,3.719c0-8.259-5.121-13.415-5.121-13.415C333.799,146.029,334.941,150.592,334.941,150.592z
		 M339.572,180.752c0,0,0.193-2.213-2.327-3.137c0,0-1.825-0.776-3.171,0C334.073,177.615,332.874,181.745,339.572,180.752z
		 M323.681,147.74c1.414,16.392,14.682,8.27,14.682,8.27C330.376,156.01,323.681,147.74,323.681,147.74z M328.802,177.82
		c0-4.563,5.271-5.27,5.271-5.27c-12.114,0-13.975-13.974-13.975-13.974c1.005,22.813,11.692,27.524,11.692,27.524
		C328.517,182.817,328.802,177.82,328.802,177.82z"/>
	<path d="M340.073,289.017c2.407-3.309,4.448-6.719,6.183-10.084l2.578,0.97c-7.677,14.703-16.461,26.545-16.461,26.545
		c-4.426,5.978-5.84,9.833-5.84,9.833c-5.704,13.402,3.992,24.239,3.992,24.239c12.82,14.829,26.646,6.695,26.646,6.695
		c13.255-6.844,13.984-20.384,13.984-20.384c0.673-3.138,0.147-7.917-0.388-11.293l0.729-0.114c0.079,0.479,0.159,0.958,0.262,1.426
		c0,0,4.278,15.686-7.414,27.377c0,0-11.59,12.354-27.184,6.65c0,0-1.711,8.749,1.335,14.646c0,0-18.639-0.569-14.646-27.569
		c0,0-1.038-0.435-1.758-3.424c0,0-0.422,1.791-1.312,4.599l-0.833-0.274c0.707-2.258,1.231-4.46,1.448-6.468
		c0,0-1.38-4.745-0.263-9.57c-0.536,1.895-1.904,6.377-4.301,12.023l-0.719-0.297c2.076-4.837,3.879-10.142,5.281-15.981
		c0,0,2.03-12.9,6.046-24c1.7-4.688,3.742-9.058,6.138-12.001c0,0-2.921,19.645-7.347,27.31c0,0,8.134-6.138,9.695-20.829
		c0,0,0.469-14.498,5.134-19.175h2.28C342.104,279.047,340.188,288.435,340.073,289.017z M321.365,321.982
		c0.022-0.091,0.034-0.137,0.034-0.137C321.388,321.892,321.376,321.938,321.365,321.982z M321.33,322.097
		c-0.057,0.171-0.103,0.343-0.137,0.502C321.251,322.382,321.296,322.223,321.33,322.097z M334.791,360.196
		c0,0-1.278-5.715,0-10.175c0,0-4.027-1.586-6.457-6.444C328.334,343.576,324.651,356.774,334.791,360.196z"/>
	<path d="M370.325,194.383l-0.411,2.441c-20.749-3.479-15.297-31.256-15.297-31.256c9.56,5.271,7.848,24.229,7.848,24.229
		C365.544,192.889,368.51,193.996,370.325,194.383z"/>
	<path d="M349.906,88.708c0,0,10.072,15.97,17.681,14.829c0,0-0.764,6.08-9.126,6.08l-1.15,0.171
		c-0.378-2.682-1.256-5.396-2.897-7.859c0,0,4.061,4.175,10.188,2.886c0,0-10.302-4.117-13.118-11.145c0,0-0.741-1.939-2.293-4.608
		l0.685-0.411C349.882,88.674,349.895,88.686,349.906,88.708z"/>
	<path d="M336.23,82.868c0,0,14.681,7.836,12.97,31.938c0,0-0.251,2.544-0.285,6.16l-1.232-0.012
		c0-13.232-2.544-32.738-16.883-37.519c0,0-3.958-1.415-12.502-0.867c-6.308,0.423-15.113,1.905-26.657,5.829
		C292.803,87.75,317.304,74.37,336.23,82.868z"/>
	<path d="M275.622,162.478c6.937,13.791,13.027,9.56,13.027,9.56c-1.883,3.775-6.845,1.276-6.845,1.276
		c-2.18,3.776-5.418,2.567-5.418,2.567c-1.813,4.654-7.608,2.555-7.608,2.555c-2.293,3.981-6.845-2.555-6.845-2.555
		c5.795,4.848,5.795,1.323,5.795,1.323c-2.657-1.518-2.942-5.418-2.942-5.418c6.844,9.799,10.551,3.615,10.551,3.615
		c-4.938-3.331-5.611-8.646-5.611-8.646c8.611,13.734,11.031,5.896,11.031,5.896C274.574,165.626,275.622,162.478,275.622,162.478z"
		/>
	<path d="M264.103,336.048c0,0,6.021,3.125,5.338,11.305l-1.518-0.138c0,0-7.849,6.571-13.402,1.004c0,0-4.779-5.064,0.854-10.699
		c0,0,3.251-0.514,8.407-2.36L264.103,336.048z M259.3,344.934c0,0,0.832-2.109-1.336-2.795c0,0-1.015-0.33-1.517-0.33
		c0,0,2.452-1.038,4.346-2.932c0,0-2.635-1.563-4.778,0.569c0,0-2.281,3.205,0.502,5.988
		C256.517,345.436,258.182,346.873,259.3,344.934z"/>
	<path d="M234.911,26.574l-0.057,0.9c-1.438-0.091-9.148-0.183-15.901,7.46c0.239-0.398,4.05-6.867,4.05-12.457
		c0,0-8.406,0.993-10.619,12.582c0,0,0.434-19.289-5.351-22.711c0,0-4.974,5.84-2.498,21.354
		c-0.251-0.594-4.403-10.357-10.974-9.947c0,0-0.422,5.509,4.151,12.103h-0.022c-0.435-0.479-2.602-2.84-5.772-4.848l0.184-0.285
		l-0.013-0.012c-0.125-0.273-2.27-4.722-2.27-9.878c0,0,5.612,0.285,10.46,5.133c0,0,0.194-3.422,2.087-8.749
		c0,0,1.996-5.031,4.188-7.221c0,0,7.414,6.844,8.556,15.022c0,0,2.852-3.239,10.072-4.187c0,0,1.334,2.658,0,7.791
		C225.182,28.627,229.688,26.187,234.911,26.574z"/>
	<path d="M211.562,234.046c0.091-0.137,0.764-1.129,1.527-3.377l2.1,0.719c-1.197,3.457-2.886,6.24-5.213,7.895
		c0,0-0.765-3.125-1.951-8.225l1.723-0.423c0,0,1.746-4.745-3.398-44.692l1.837-0.239c0.354,2.875,0.798,5.293,0.798,5.293
		c0-1.164,0.49-3.514,1.049-5.783l2.271,0.376c-0.456,1.734-1.528,7.711,0.183,21.844
		C212.486,207.433,214.573,225.582,211.562,234.046z"/>
	<path d="M177.328,91.674c0.285-0.194,2.624-1.928,5.11-6.251c0,0-0.992,0.936-2.988,0.434
		C179.45,85.857,179.336,89.644,177.328,91.674z M153.373,103.652c13.518-4.255,18.297-7.095,18.297-7.095
		c-3.569,0.696-4.813-0.708-4.813-0.708C163.435,99.271,154.321,103.229,153.373,103.652z M204.545,54.898l-0.936,1.518
		c0,0-0.878,1.449-2.509,1.449c0,0-0.616,8.247-13.734,19.301c0,0,1.358,0.318,3.091,0.479l-0.091,1.084c0,0,1.505,3.901,0.08,8.271
		c0,0-1.038-6.845-4.369-8.271c0,0-4.187,38.979-55.232,22.152l-1.711-0.262c0.228-0.708,0.479-1.54,0.753-2.499
		c0,0,10.368,5.681,17.259,1.711c0,0-7.563-1.302-18.821-4.917l0.627-1.951c0.16,0.057,0.24,0.091,0.24,0.091
		c2.236,0.604,4.346,1.118,6.342,1.551c24.126,5.293,30.583-0.936,30.583-0.936c-1.438-2.863-1.289-6.958-1.289-6.958
		c-7.415,2.565-28.106,1.858-28.106,1.858c0,1.142-0.686,3.73-0.686,3.73c-1.346-2.692-1.574-5.441-1.574-5.441
		c-9.98-2.145-26.942-13.688-26.942-13.688c-6.57-4.289-14.18-3.229-14.18-3.229c3.65,1.494,4.302,4.313,4.302,4.313
		c-2.556-0.513-4.997-0.479-7.313-0.046l-0.125-0.707c0,0-2.189-0.673-4.938-3.422c0,0,7.791-5.327,22.244,1.322
		c0,0,15.011,10.838,27.377,14.26c0,0,0.752-9.878,4.744-11.589l0.251,0.193c-1.699,2.167-3.388,5.19-3.137,8.453
		c0,0,4.188-8.27,14.83-9.125c0,0,4.939-0.947,5.418,4.141c0,0,0.091,5.933-5.327,8.122c0,0,8.943-0.171,12.365-1.277
		c0,0,7.563-11.042,17.487-8.704c0,0,11.886-3.992,15.354-15.354c0,0-9.08,11.271-28.277,11.271c0,0-18.993,1.231-26.784-14.613
		c0.593,0.708,10.757,12.719,27.639,11.362c0,0,19.004-1.882,23.567-8.156c0,0-8.009,6.274-19.734-1.049
		c0,0-2.236,5.042-7.985,5.852l-0.171-1.254c1.631-0.24,5.477-1.402,7.975-6.97c0,0,11.406,8.167,20.715,1.323
		c0,0-3.229-0.184-3.229-4.563c0,0,0.286-4.05,3.845-3.993v0.502c-0.765,0.309-1.323,1.198-1.323,2.26c0,1.3,0.844,2.36,1.882,2.36
		c1.015,0,1.848-1.026,1.882-2.293l1.142,0.08c0,1.438,0.924,2.612,2.075,2.612c1.142,0,2.076-1.175,2.076-2.612l1.198-0.08
		C203.382,53.621,203.872,54.51,204.545,54.898z M175.332,82.058c5.704,1.142,6.091-1.004,6.091-1.004
		c-9.033-5.943-11.978,3.091-11.978,3.091c-3.137,8.271,1.608,7.553,1.608,7.553C178.858,90.613,175.332,82.058,175.332,82.058z
		 M149.85,84.716c6.695-6.194,1.573-8.122,1.573-8.122c-7.129-2.43-11.406,9.263-11.406,9.263
		C147.853,85.857,149.85,84.716,149.85,84.716z"/>
	<path d="M186.785,385.668c0,0-35.19,4.837-50.795-17.477C136.48,368.66,152.381,383.809,186.785,385.668z"/>
	<path d="M165.99,335.066l-0.742,1.711c-1.951-0.467-22.997-5.806-32.635-20.063l1.277-1.118
		C138.784,320.01,148.823,327.687,165.99,335.066z"/>
	<path d="M165.122,63.933l0.171,1.254c-1.084,0.148-2.304,0.16-3.649-0.057c0,0-4.849-0.947-7.129-5.794
		c0,0-6.993,0.285-10.905-3.855c-1.152-1.209-2.03-2.806-2.396-4.894c0,0-7.938,10.506,1.895,20.351c0,0-1.62,1.277-3.229,3.331
		l-0.251-0.193c0,0-10.448-18.445,3.616-26.808c0,0-1.141,13.301,17.682,9.309c0,0-3.992,7.415,3.422,7.415
		C164.348,63.99,164.632,64.001,165.122,63.933z"/>
	<path d="M159.829,175.14c-0.182,0.445-3.673,8.464-7.551,6.251c0,0-4.141,2.728-6.479,0.388c0,0-2.076-1.597-1.734-3.719
		c0,0-2.384,2.669-5.327,0.958c0,0-2.087-0.924-2.087-3.114c0,0-3.548,1.323-4.905-0.022c0,0,7.415-1.335,10.985-9.605
		c0,0-0.536,4.791-4.62,8.887c0,0-0.103,2.167,1.483,2.611c1.585,0.456,3.49,0.936,6.764-4.688c-0.171,0.468-2.236,6.103,0.012,6.9
		c0,0,2.783,2.134,7.449-3.729c-1.061,1.494-2.658,4.106-0.821,4.106C152.997,180.365,155.781,180.764,159.829,175.14z"/>
	<path d="M141.648,377.513l-0.811,0.958c-0.091-0.068-0.171-0.147-0.251-0.217c0,0,0.376,10.837-8.942,16.164
		c0,0-0.753-13.688-10.073-27.947c0,0-5.783-7.917-10.597-17.658l0.821-0.398c2.11,4.255,4.734,8.556,7.974,12.787
		c7.415,9.661,12.98,28.176,12.98,28.176c4.004-7.871,1.255-16.825-1.917-23.156C134.187,370.771,137.85,374.49,141.648,377.513z"/>
	<path d="M83.699,300.31c1.859,3.719,1.46,7.301,0.547,10.017l-1.266-0.319c0,0,2.658-7.791-3.422-10.461
		c0,0-5.133-3.034-12.171,0.958c0,0-1.393-18.686-4.814-34.289l1.289-0.263c2.852,13.197,5.146,28.653,5.146,28.653
		C79.421,290.271,83.699,300.31,83.699,300.31z"/>
	<path d="M66.452,163.858c3.742,15.023-3.479,25.017-9.365,30.365l-1.984-0.433c2.486-2.248,4.141-4.837,4.141-4.837
		C56.881,180.672,66.452,163.858,66.452,163.858z"/>
	<path d="M63.863,265.951l-1.289,0.263c-0.958-4.369-2.076-8.498-3.365-11.909c0,0,2.669,21.479-6.273,23.101
		c0,0,1.335-5.989-8.361-12.08c0,0-13.312-5.511-11.601-16.152c0,0-2.658,1.323-7.985,2.657c0,0,1.529-6.273,2.476-11.602
		c0,0,0-0.021,0.012-0.08l0.924,0.171c-0.239,1.289-0.445,2.658-0.593,4.097c0,0,0-0.013,0.011-0.034l1.38,0.581
		c-0.091,0.194-0.171,0.398-0.251,0.594c0,0,3.365-1.951,5.704-3.285c0,0-3.536,12.696,9.924,19.825c0,0,5.704,2.247,6.662,6.662
		c0,0,0.285-2.704-2.943-9.206l0.845-0.319c1.187,2.419,2.189,3.867,2.189,3.867c2.282,3.844,2.453,8.407,2.453,8.407
		c3.57-3.57,0.696-8.841,0.696-8.841c-8.704-17.817-1.859-23.67-1.859-23.67c1.198-1.54,2.327-3.068,3.399-4.598l0.878,0.604
		c0,6.422,3.137,16.54,3.137,16.54C61.319,254.978,62.643,260.259,63.863,265.951z"/>
	<path d="M55.102,193.791l1.984,0.433c-3.468,3.16-6.468,4.7-6.468,4.7c-9.263,4.289-17.179-4.631-17.179-4.631
		c-9.411-14.76,6.434-23.589,6.434-23.589c0,3.844,0,6.125,0,6.125l-1.197,2.373c0,0-7.985,19.209,12.364,17.11
		c0,0,0.469-4.118,1.654-10.004l0.764,0.148c-1.151,5.909-1.095,9.365-1.095,9.365C53.357,195.25,54.27,194.543,55.102,193.791z"/>
	<path d="M52.183,163.048c0,0,3.08,4.027,1.471,9.753c-0.434,1.517-1.186,3.16-2.43,4.882c0,0-4.563,4.757-7.985,4.757
		c0,0-3.228-0.569-4.563-3.239l1.197-2.373c3.148,0.569,5.18-3,5.18-3c6.729-11.647-2.418-12.686-2.418-12.686
		c-1.678-0.193-3.251,0.148-4.7,0.811l-0.399-0.811C37.535,161.144,44.379,155.246,52.183,163.048z"/>
</g>
<path fill="none" stroke="#231F20" stroke-width="2" stroke-miterlimit="10" d="M107.404,228.148
	c-0.205-2.966-0.308-5.954-0.308-8.978c0-64.416,46.779-116.637,104.477-116.637c57.709,0,104.489,52.222,104.489,116.637
	c0,3.022-0.104,6.012-0.31,8.978c-4.105,60.219-49.176,107.66-104.181,107.66C156.579,335.809,111.51,288.366,107.404,228.148z"/>
<path fill="none" stroke="#231F20" stroke-miterlimit="10" d="M110.255,228c-0.193-2.863-0.297-5.761-0.297-8.682
	c0-62.316,45.492-112.839,101.614-112.839c56.135,0,101.626,50.522,101.626,112.839c0,2.921-0.104,5.817-0.297,8.682
	c-3.992,58.256-47.829,104.158-101.329,104.158C158.084,332.158,114.247,286.256,110.255,228z"/>
</svg>
